<svg width="93" height="90" viewBox="0 0 93 90" fill="none" xmlns="http://www.w3.org/2000/svg">
<path d="M46.5 0C20.8204 0 0 20.1488 0 45C0 69.8512 20.8204 90 46.5 90C72.1796 90 93 69.8512 93 45C93 20.1488 72.1796 0 46.5 0ZM46.5 2.925C70.5095 2.925 89.9736 21.7612 89.9736 45C89.9736 68.235 70.5134 87.0712 46.5 87.0712C22.4866 87.0712 3.02638 68.235 3.02638 45C3.02638 21.765 22.4905 2.925 46.5 2.925ZM43.8727 5.2875C42.594 5.34 41.3152 5.445 40.0287 5.58L39.6141 16.62C40.5265 16.4706 41.4442 16.353 42.3654 16.2675L42.6366 8.8125L42.5862 8.29875L42.7529 8.78625L45.3259 14.37H47.6741L50.2471 8.79L50.4021 8.29875L50.3634 8.8125L50.6346 16.2675C51.5336 16.35 52.4675 16.47 53.3859 16.62L52.9635 5.58C51.6859 5.44068 50.4039 5.34312 49.1195 5.2875L46.5891 11.3813L46.5 11.8312L46.4109 11.3813L43.8727 5.2875ZM69.8197 12.1275L63.8406 21.2325C64.5963 21.795 65.5921 22.6238 66.2315 23.19L71.8619 20.3625L72.2184 20.1038L71.951 20.4562L69.037 25.905C69.6686 26.5612 70.5793 27.6225 71.0908 28.2675L80.507 22.4775C79.9295 21.7546 79.3352 21.0444 78.7245 20.3475L72.7609 24.15L72.354 24.495L72.6562 24.0637L75.2913 18.9787L73.4313 17.1787L68.1767 19.7288L67.7311 20.0213L68.0837 19.6237L72.0285 13.8525C71.331 13.2825 70.6684 12.7612 69.8197 12.1275ZM21.3125 14.1938C19.9175 14.3325 18.8402 15.255 15.9146 18.4125C14.9001 19.5251 13.9219 20.6682 12.9812 21.84L21.018 29.2162C23.6801 26.3662 24.7613 25.3087 26.8615 23.1675C28.3456 21.6487 29.1865 19.905 27.6985 18.2288C26.8925 17.3213 25.5362 17.1225 24.4047 17.5725L24.2962 17.61L24.335 17.5125C24.4747 17.0149 24.46 16.4885 24.2925 15.999C24.125 15.5095 23.8123 15.0786 23.3934 14.76C23.1022 14.5378 22.7683 14.3737 22.4111 14.2771C22.054 14.1806 21.6806 14.1498 21.3125 14.1938ZM21.3358 16.5C21.8628 16.3613 22.4091 16.725 22.5293 17.25C22.6533 17.775 22.3122 18.27 21.9325 18.6825C21.08 19.62 17.9374 22.8 17.9374 22.8L16.3796 21.3638C17.9955 19.4513 19.716 17.7113 20.4949 17.0213C20.7286 16.7855 21.0168 16.6069 21.3358 16.5ZM46.5 18.3112C39.6738 18.3083 33.0893 20.7565 28.0211 25.1818C22.9529 29.6071 19.7616 35.6947 19.065 42.2662V42.2737C18.6271 46.443 19.2092 50.6534 20.7642 54.5646C22.3192 58.4758 24.8035 61.978 28.0161 64.7881C31.2288 67.5981 35.0796 69.637 39.2573 70.74C43.435 71.8431 47.8223 71.9792 52.0645 71.1375C58.2826 69.9005 63.8688 66.6241 67.8791 61.8618C71.8894 57.0995 74.0778 51.1434 74.0745 45C74.0673 37.9252 71.1597 31.1422 65.99 26.1399C60.8202 21.1376 53.8107 18.3247 46.5 18.3188V18.3112ZM25.0441 19.2188C25.2262 19.2188 25.4161 19.2675 25.5866 19.38C25.9276 19.6013 26.0826 19.98 25.9974 20.355C25.8966 20.8012 25.513 21.2212 25.203 21.5475L21.1536 25.7475L19.5261 24.2475C19.5261 24.2475 22.5758 21.1275 23.5755 20.1263C23.9708 19.7288 24.2265 19.4888 24.4978 19.3575C24.6658 19.2731 24.8549 19.2257 25.0441 19.2188ZM46.5 21.8175C49.6469 21.814 52.7635 22.4113 55.6715 23.5751C58.5795 24.7389 61.2217 26.4464 63.4469 28.5998C65.672 30.7532 67.4364 33.3102 68.639 36.1244C69.8416 38.9385 70.4588 41.9547 70.4552 45H46.5V68.1825C43.3531 68.186 40.2365 67.5887 37.3285 66.4249C34.4205 65.2611 31.7783 63.5536 29.5531 61.4002C27.328 59.2468 25.5636 56.6898 24.361 53.8756C23.1584 51.0615 22.5412 48.0453 22.5447 45H46.5V21.8175Z" fill="white"/>
</svg>
