<svg width="95" height="90" viewBox="0 0 95 90" fill="none" xmlns="http://www.w3.org/2000/svg">
<path d="M0.597168 46.88C0.597168 45.5687 0.597168 44.2749 0.597168 42.9635C0.633392 42.7013 0.687727 42.4565 0.723951 42.1942C1.03185 40.0087 1.15864 37.7708 1.64765 35.6202C6.12128 15.6184 23.9433 1.01912 45.0799 0.0574946C56.599 -0.467029 67.0314 2.59269 76.1598 9.42899C85.7409 16.5975 91.5911 25.9865 93.6739 37.5435C93.9456 39.0296 94.1086 40.5332 94.3078 42.0369C94.3078 43.9776 94.3078 45.9009 94.3078 47.8416C94.2535 48.0689 94.1992 48.2962 94.1629 48.5235C93.6377 51.3734 93.3479 54.2933 92.551 57.0383C86.3386 78.1941 65.4376 91.7967 42.6166 89.5413C31.6771 88.4747 22.2408 84.1387 14.4346 76.6904C6.95443 69.5569 2.49891 60.9023 1.06808 50.8314C0.886957 49.5201 0.742063 48.1913 0.597168 46.88ZM46.7461 5.16286C45.5145 5.16286 44.2467 5.14538 43.0151 5.16286C42.5623 5.16286 42.0914 5.2328 41.6386 5.26776C32.5283 5.96713 24.3237 8.9744 16.9522 14.1497C13.529 16.545 10.6674 19.4299 9.30896 23.3638C8.47582 25.7941 7.96869 28.3643 7.62456 30.917C6.41107 39.8339 7.18988 48.6284 9.74365 57.2656C11.5186 63.35 14.3078 68.9799 18.1475 74.1028C21.2266 78.1766 25.4647 80.6418 30.2825 82.2679C40.9866 85.8521 51.8356 86.0444 62.6665 83.0372C69.9836 81.009 75.9787 77.3373 79.601 70.3612C84.5093 60.9197 87.3891 51.1111 87.4797 40.5158C87.5159 36.3371 87.1537 32.1583 86.4654 28.0321C85.4149 21.8077 82.3359 16.8073 76.7575 13.3979C67.6291 7.80296 57.5951 5.11041 46.7461 5.16286Z" fill="white"/>
<path d="M14.7609 32.4554C14.9058 29.2208 14.8876 26.1961 15.2499 23.2238C15.6665 19.727 17.7131 17.2267 21.1543 15.863C25.7004 14.0621 30.4819 13.0655 35.3359 12.4186C40.6246 11.7017 45.9495 11.4395 51.2924 11.6143C57.7584 11.8241 64.1337 12.5585 70.2374 14.744C71.5596 15.2161 72.8274 15.7755 74.0953 16.3875C77.4278 17.996 78.9673 20.8285 79.5107 24.2204C79.8186 26.0737 79.8367 27.962 79.891 29.8328C80.2171 42.3165 78.3334 54.5029 74.3488 66.3921C73.5519 68.735 72.6825 71.0079 71.7951 73.3158C71.6683 73.648 71.4328 73.9452 71.1611 74.19C68.5893 76.4455 65.4559 77.6344 62.1596 78.5086C56.1645 80.0822 50.0427 80.3619 43.8847 79.9948C39.2843 79.7325 34.7382 79.0681 30.3914 77.5645C29.359 77.1973 28.3266 76.7602 27.3305 76.2881C25.3201 75.344 23.9255 73.9103 23.038 71.8471C18.7636 62.0386 16.0468 51.8453 15.2318 41.215C14.9782 38.2427 14.9058 35.2354 14.7609 32.4554ZM48.9379 63.9268C48.9379 58.1571 48.9379 52.4572 48.9379 46.7399C50.8034 46.7399 52.5059 46.7399 54.3171 46.7399C54.3171 52.5097 54.3171 58.1746 54.3171 63.9268C55.6574 63.9268 56.8709 63.9268 58.1749 63.9268C58.1931 63.6646 58.2112 63.4548 58.2112 63.2275C58.2112 53.9434 58.2112 44.6768 58.2112 35.4102C58.2112 35.0605 58.1206 34.6934 57.9395 34.3612C56.9252 32.3155 55.8566 30.2874 54.8243 28.2592C54.6069 27.7871 54.3171 27.6298 53.7738 27.6473C51.3106 27.6822 48.8473 27.6648 46.4023 27.6648C45.3518 27.6648 45.3518 27.6648 45.3518 28.6788C45.3518 40.1135 45.3518 51.5481 45.3518 63.0177C45.3518 63.3324 45.3518 63.6296 45.3518 63.9793C46.529 63.9268 47.6339 63.9268 48.9379 63.9268ZM35.0461 27.8046C31.297 27.8046 27.5659 27.8046 23.8892 27.8046C23.8892 39.9211 23.8892 51.9677 23.8892 64.0492C25.1933 64.0492 26.4249 64.0492 27.7471 64.0492C27.7471 58.262 27.7471 52.5447 27.7471 46.6875C29.7394 46.6875 31.6411 46.6875 33.5066 46.6875C33.5066 45.2888 33.5066 43.9949 33.5066 42.6137C31.5505 42.6137 29.6669 42.6137 27.7833 42.6137C27.7833 38.9945 27.7833 35.4277 27.7833 31.8085C30.2284 31.8085 32.601 31.8085 35.0461 31.8085C35.0461 30.4098 35.0461 29.1334 35.0461 27.8046ZM66.9592 31.8609C68.3176 31.8609 69.5673 31.8609 70.8713 31.8609C70.8713 30.4447 70.8713 29.1159 70.8713 27.8046C66.9049 27.8046 63.0108 27.8046 59.1168 27.8046C59.1168 29.1859 59.1168 30.4797 59.1168 31.8609C60.4027 31.8609 61.5981 31.8609 63.0289 31.8609C63.0289 42.5962 63.0289 53.244 63.0289 63.9268C64.4598 63.9268 65.6551 63.9268 66.9773 63.9268C66.9592 53.279 66.9592 42.6137 66.9592 31.8609ZM40.697 64.0492C40.697 51.8978 40.697 39.8162 40.697 27.6997C39.3749 27.6997 38.1433 27.6997 36.9116 27.6997C36.9116 39.8512 36.9116 51.9327 36.9116 64.0492C38.1795 64.0492 39.4111 64.0492 40.697 64.0492Z" fill="white"/>
<path d="M54.2806 41.7748C52.4513 41.7748 50.7488 41.7748 49.0282 41.7748C49.0282 38.4179 49.0282 35.0959 49.0282 31.6865C50.0243 31.6865 51.0024 31.669 51.9985 31.704C52.1615 31.704 52.3789 31.9662 52.4513 32.1411C53.0309 33.4699 53.5924 34.7812 54.1539 36.11C54.2082 36.2324 54.2625 36.3722 54.2625 36.4946C54.2806 38.2256 54.2806 39.9915 54.2806 41.7748Z" fill="white"/>
</svg>
