<svg width="127" height="44" viewBox="0 0 127 44" fill="none" xmlns="http://www.w3.org/2000/svg">
<path d="M60.2451 0.484868C60.2352 0.491243 59.7168 0.50718 59.0895 0.51993C58.4621 0.532679 57.8084 0.548616 57.6367 0.554991C57.465 0.564553 56.9301 0.586865 56.448 0.602802C53.8032 0.701611 50.8646 0.88648 48.0944 1.13191C31.1692 2.61724 16.7666 6.51861 8.39317 11.8798C3.89608 14.7612 1.34707 17.9645 0.927736 21.2699C0.858398 21.8022 0.858398 22.6915 0.927736 23.2206C1.28103 26.0064 3.14657 28.7188 6.455 31.2592C12.4577 35.8682 23.2019 39.6835 36.3564 41.8796C42.26 42.8613 48.7613 43.5434 54.9622 43.8239C55.3518 43.8398 55.8074 43.8621 55.9692 43.8717C56.1343 43.8781 56.5702 43.894 56.9433 43.9036C57.3164 43.9163 57.6664 43.9291 57.7192 43.9355C58.439 44.0215 67.6742 44.0215 69.4572 43.9355C69.6289 43.9259 70.1638 43.9036 70.6459 43.8876C83.4966 43.4095 96.07 41.4302 105.744 38.3575C118.166 34.4115 125.43 29.0312 126.166 23.2206C126.272 22.3855 126.219 21.3209 126.031 20.4922C125.05 16.1955 120.378 12.0711 112.695 8.71473C102.502 4.26512 87.8055 1.36778 71.785 0.650613C71.2039 0.625114 70.5666 0.596427 70.3652 0.586865C70.1671 0.58049 69.6322 0.564553 69.1766 0.551804C68.7242 0.542242 68.3082 0.526305 68.252 0.516742C68.1299 0.497618 60.2682 0.465744 60.2451 0.484868ZM68.0704 1.97657C86.5607 2.42599 103.09 5.56558 113.57 10.6176C116.244 11.9053 118.212 13.1261 120.008 14.6082C120.784 15.2489 121.788 16.2752 122.379 17.0402C123.894 18.9877 124.515 21.1583 124.149 23.2174C123.898 24.6453 123.204 26.0287 122.036 27.4407C121.616 27.9475 120.434 29.1013 119.843 29.5826C114.824 33.6561 106.157 37.0188 94.8483 39.2787C83.1037 41.6246 69.1369 42.5649 55.4244 41.9274C41.9992 41.3027 29.5876 39.1799 20.1774 35.8968C15.2445 34.1788 11.1832 32.1389 8.40638 29.9874C5.60973 27.8232 4.02155 25.5952 3.58241 23.2174C3.51637 22.8604 3.50316 22.6978 3.50316 22.038C3.50316 21.187 3.53618 20.9129 3.73099 20.1894C4.90644 15.8099 10.4205 11.679 19.4444 8.41511C21.8184 7.55451 24.2486 6.81822 27.2598 6.0405C30.0763 5.31696 33.7413 4.55836 37.0828 4.01332C44.502 2.79892 51.9674 2.13913 60.3277 1.96382C61.2225 1.9447 67.1624 1.95426 68.0704 1.97657Z" fill="white"/>
<path d="M62.322 3.6756C62.3154 3.68197 61.5527 3.69472 60.6249 3.70747C59.7004 3.72022 58.898 3.73616 58.8419 3.74253C58.7891 3.74891 58.3862 3.76166 57.9504 3.77441C56.2995 3.81266 53.8891 3.93059 51.6769 4.0804C38.7701 4.94418 27.1146 7.18811 18.7412 10.4201C12.8309 12.6991 8.80926 15.3415 6.86448 18.2165C5.8112 19.7783 5.41168 21.439 5.69894 23.055C6.42534 27.1412 11.3748 30.9757 19.9298 34.077C21.026 34.4722 23.2416 35.1926 24.4335 35.5368C32.8037 37.9561 43.145 39.5497 54.2193 40.1235C57.7259 40.3083 60.057 40.3657 63.8772 40.3657C67.671 40.3657 70.0516 40.3052 73.5185 40.1267C91.5201 39.1832 107.134 35.6006 115.61 30.4657C117.076 29.5764 118.225 28.7158 119.232 27.7436C120.589 26.4368 121.415 25.2065 121.844 23.8454C122.019 23.2908 122.092 22.8446 122.112 22.2262C122.138 21.4198 122.046 20.7792 121.788 20.0365C120.804 17.1838 117.766 14.4872 112.827 12.0776C103.555 7.55785 88.5055 4.54576 71.653 3.83815C70.603 3.79672 69.3351 3.75528 67.5752 3.71066C66.7168 3.68835 62.3418 3.65966 62.322 3.6756ZM50.0425 6.97774C52.7236 7.10842 54.5627 7.33473 59.8523 8.17302C63.2135 8.7085 64.5673 8.89974 66.2875 9.09417C70.3422 9.55316 74.1822 9.57866 77.6128 9.17386C78.785 9.0368 80.0066 8.83918 81.0797 8.61287C81.3802 8.55231 81.7071 8.50132 81.8094 8.50132C82.166 8.50132 82.45 8.69894 82.549 9.02405C82.6151 9.24079 82.6118 9.40335 82.5358 9.6934C82.3245 10.4839 81.608 11.1787 80.2477 11.9118C78.5637 12.8234 76.8765 13.2505 74.5355 13.3589C72.9209 13.4322 71.0917 13.292 69.1139 12.9382C67.605 12.6672 66.3106 12.3613 63.0352 11.4911C61.5989 11.1118 61.1169 10.9875 60.3607 10.8058C59.7598 10.6592 58.7098 10.4201 58.6735 10.4201C58.6669 10.4201 58.6603 10.5062 58.6603 10.6082C58.6603 10.7134 58.6471 10.8345 58.6306 10.8791C58.6108 10.9269 58.3235 11.1532 57.8811 11.4752C56.5966 12.3995 55.4311 13.327 54.6849 14.0219C53.3476 15.2586 52.3736 16.3997 51.634 17.5854C51.4227 17.9264 51.4293 17.9488 51.7264 17.9233C51.8255 17.9169 52.4132 17.8882 53.0307 17.8627C54.5198 17.799 55.7811 17.7193 55.8768 17.6842C55.9198 17.6683 55.9528 17.6396 55.9561 17.6173C55.9561 17.595 55.9561 17.3687 55.9561 17.1137C55.9528 16.5877 56.0122 16.2403 56.1806 15.8228C56.6 14.7773 57.5806 14.0283 58.6108 13.9677C59.4924 13.9167 60.2452 14.4267 60.4598 15.2235C60.4862 15.3223 60.5093 15.5391 60.5093 15.6985C60.5093 16.932 59.6145 18.0731 58.2971 18.5193C58.0428 18.6054 57.9999 18.6309 57.9999 18.7105C57.9999 18.8125 58.1815 18.9751 58.6603 19.297C58.9178 19.4691 59.1424 19.6381 59.1589 19.6668C59.1985 19.7433 59.1952 19.9409 59.1523 20.0238C59.0961 20.1289 58.9211 20.3011 58.8155 20.3552C58.6405 20.4413 58.3994 20.4158 58.1089 20.2756C57.6433 20.0493 57.2438 19.7656 56.8443 19.3831C56.6363 19.1823 56.425 19.007 56.3754 18.9942C56.3259 18.9783 56.2004 18.9751 56.0948 18.9815C55.9891 18.9879 55.583 19.0165 55.1934 19.042C53.7108 19.144 50.759 19.4341 50.4519 19.5074C50.376 19.5265 50.2769 19.5807 50.234 19.6253C50.1878 19.6731 49.9402 20.0493 49.6793 20.4604C46.1563 26.0416 44.0332 28.8879 41.8573 30.9406C39.0903 33.5574 36.6074 34.6539 33.4508 34.6507C32.4702 34.6475 31.6843 34.5296 30.8655 34.2555C28.4717 33.4618 26.9066 31.6386 26.583 29.2736C26.5203 28.8242 26.5104 27.8743 26.5632 27.4568C26.8802 24.977 28.4585 22.8669 30.8424 21.7354C31.3971 21.4708 31.9815 21.2764 32.4438 21.2031C33.0447 21.1075 33.5928 21.2286 33.8305 21.5059C33.9857 21.6876 34.0617 21.8724 34.0617 22.0701C34.0617 22.3984 33.9494 22.545 33.5202 22.7649C30.6476 24.2407 29.4226 26.5675 30.4462 28.6106C31.0372 29.7868 32.2423 30.437 33.8305 30.437C35.6961 30.4338 37.6673 29.5732 39.5757 27.9317C41.3125 26.4336 43.1648 24.4447 44.9148 22.1976C45.8723 20.9704 46.4435 20.1991 46.4435 20.1385C46.4435 20.0843 46.4171 20.0779 46.2322 20.0779C45.9218 20.0779 45.2912 20.1608 44.8917 20.2564C44.1719 20.4286 43.4521 20.7441 42.7356 21.2063C42.2634 21.5059 42.0752 21.5696 41.8243 21.5155C41.2927 21.4007 41.1441 20.8493 41.5172 20.368C41.6162 20.2405 42.171 19.8835 42.6134 19.6668C43.8054 19.0739 44.7959 18.803 47.16 18.4205C47.8798 18.3057 48.1109 18.2579 48.1638 18.2101C48.2034 18.1783 48.7152 17.5312 49.2996 16.779C49.8873 16.0236 50.5246 15.2203 50.7194 14.994C51.1651 14.4745 52.3901 13.292 53.1297 12.6672C54.5429 11.4752 55.1835 11.0353 56.4481 10.3883C56.6924 10.2639 56.9169 10.1396 56.9433 10.1141C57.0853 9.98027 56.8476 9.9229 53.9552 9.41929C50.343 8.78818 47.9359 8.62881 45.7006 8.87424C43.5973 9.10692 41.6394 9.73165 40.4012 10.5731C39.4403 11.2234 38.6875 12.0744 38.354 12.884C38.1559 13.3685 38.113 13.5788 38.1097 14.0856C38.1097 14.5032 38.1196 14.5733 38.1988 14.8092C38.3441 15.2331 38.605 15.555 38.9682 15.759C39.4238 16.0172 40.1634 16.1001 40.8304 15.9662C42.2568 15.6825 44.0101 14.4649 44.9907 13.0752C45.3011 12.6354 45.4067 12.5557 45.6775 12.5557C45.8789 12.5557 46.0308 12.6481 46.1265 12.8266C46.1827 12.9318 46.1959 13.0083 46.1926 13.2569C46.1926 13.5342 46.1827 13.5852 46.0671 13.8466C45.76 14.551 45.1954 15.52 44.753 16.1033C43.4554 17.8181 41.8672 18.94 40.1337 19.364C39.4007 19.5425 38.4531 19.5935 37.7993 19.4883C36.2277 19.2333 35.0126 18.2261 34.5107 16.7567C34.2135 15.8897 34.2003 14.8092 34.4777 13.786C35.039 11.7238 36.7196 9.95477 39.3281 8.67981C41.3884 7.67578 43.6238 7.13393 46.3445 6.98093C47.0345 6.94268 49.2897 6.94268 50.0425 6.97774ZM101.399 15.2331C101.544 15.2841 101.511 15.3988 101.208 15.8515C101.056 16.0809 100.022 17.6173 98.9096 19.2652C94.0361 26.475 91.9229 29.6879 91.1899 30.982C90.8267 31.6163 90.7772 32.0849 91.0413 32.3781C91.2163 32.5757 91.3781 32.6458 91.7116 32.6618C92.3191 32.6905 92.8673 32.4546 93.838 31.7502C94.7196 31.1127 95.3205 30.5836 96.9978 28.9803C98.5299 27.5141 98.3879 27.597 98.7841 27.9253C99.2431 28.3046 99.4709 28.5373 99.4709 28.6265C99.4709 28.7636 98.3516 30.0099 97.2422 31.1031C95.0531 33.261 93.422 34.3957 91.7446 34.9344C90.3116 35.3934 89.0966 35.2595 88.3702 34.5678C87.9541 34.1758 87.6999 33.6722 87.6173 33.0761C87.548 32.6044 87.5018 32.5948 87.0626 32.9805C85.8872 34.0069 84.5896 34.6985 83.424 34.9153C81.6509 35.2436 80.0099 34.4945 79.2373 33.0028C78.7982 32.155 78.6397 30.9502 78.818 29.8314C78.8609 29.5445 78.8378 29.4106 78.7354 29.3915C78.709 29.3883 78.5373 29.4776 78.3557 29.5923C77.7614 29.9684 76.8303 30.3637 76.1303 30.5358C75.3577 30.727 74.4761 30.6824 73.8652 30.421C73.3204 30.1884 72.7888 29.6943 72.5115 29.162C72.32 28.7955 72.1318 28.0815 72.1318 27.7277C72.1318 27.597 72.0624 27.4823 72.003 27.5173C71.9469 27.5524 70.8176 29.2162 68.6252 32.5088C67.8823 33.6212 67.2318 34.571 67.1757 34.6188L67.08 34.7081H65.3993C63.5569 34.7081 63.613 34.7145 63.613 34.52C63.613 34.4085 64.0093 33.7806 65.3333 31.7916C67.0668 29.1907 67.9748 27.7723 68.8464 26.3061C69.5794 25.079 69.6686 24.875 69.6686 24.4256C69.6719 24.1642 69.6653 24.1259 69.5794 24.0048C69.2228 23.4789 68.3181 23.7466 66.9974 24.7634C66.4559 25.181 65.188 26.4017 64.5904 27.0807C63.864 27.903 62.6093 29.4457 62.147 30.0832C60.6447 32.1518 59.2216 33.4491 57.6037 34.2332C56.0618 34.979 54.5957 35.1384 53.0868 34.7208C52.6906 34.6125 51.9972 34.2746 51.6571 34.026C50.9307 33.4937 50.3628 32.7192 50.0755 31.8713C49.9137 31.3932 49.8378 31.355 49.5737 31.6386C49.0586 32.1932 48.1308 32.9646 47.5826 33.3025C47.4671 33.3726 47.3812 33.4013 47.2822 33.4013C47.1534 33.4013 47.127 33.3853 46.9553 33.2005C46.8529 33.0921 46.6647 32.8562 46.5393 32.6745C46.3048 32.3367 46.2652 32.2092 46.3445 32.0626C46.361 32.0307 46.6416 31.7789 46.9619 31.5016C48.5336 30.1469 48.8473 29.7517 49.4515 28.3333C49.884 27.3197 50.4618 26.2742 51.0099 25.522C51.426 24.9515 51.7496 24.5785 52.2878 24.0622C53.1033 23.2749 53.7241 22.8446 54.7641 22.3442C55.4806 21.9999 56.1179 21.7641 56.7617 21.6079C58.0296 21.2955 58.6999 21.3147 58.9442 21.6621C59.0301 21.7864 59.3207 22.5354 59.3438 22.6916C59.3537 22.7585 59.3405 22.8255 59.3141 22.8605C59.2909 22.8892 59.0631 22.9976 58.8089 23.0996C58.1716 23.3578 57.7127 23.5713 57.29 23.8072C55.6589 24.7124 54.5198 25.828 53.8231 27.2018C53.2552 28.3142 53.0901 29.4106 53.3476 30.3127C53.5226 30.9215 53.9684 31.4633 54.5 31.7056C54.6552 31.7757 54.8632 31.8522 54.9622 31.8745C55.1934 31.9287 55.8405 31.9287 56.1014 31.8745C57.9042 31.492 59.5518 29.8537 60.2551 27.7436C60.5258 26.934 60.6447 26.1786 60.648 25.2893C60.648 24.4893 60.582 23.9793 60.3739 23.2016C60.2617 22.7745 60.2584 22.7203 60.3409 22.545C60.4169 22.3824 60.6117 22.2231 60.9881 22.0063C61.7673 21.5601 62.0183 21.4963 62.3517 21.6589C62.5532 21.7545 62.6588 21.8884 62.8866 22.3123C63.2531 23.004 63.4579 23.7785 63.5305 24.7634C63.5569 25.1077 63.5866 25.1873 63.689 25.1714C63.7319 25.165 64.0522 24.8527 64.5012 24.3809C66.2578 22.5354 67.0668 21.8661 68.1795 21.3338C68.9389 20.9736 69.52 20.827 70.2002 20.8302C70.9233 20.8302 71.4021 20.9959 71.7983 21.3816C72.2341 21.8023 72.452 22.3824 72.4851 23.2112C72.5049 23.7148 72.5379 23.8231 72.6501 23.7562C72.6832 23.7371 72.835 23.565 72.9902 23.3737C73.8223 22.341 74.9581 21.5633 76.0147 21.3051C77.0746 21.0437 77.9496 21.1712 78.6661 21.6908C79.0755 21.9872 79.4321 22.5131 79.5444 22.9912C79.7656 23.9092 79.3397 25.0439 78.5472 25.6527C78.1279 25.9746 77.6425 26.1436 77.134 26.1436C76.2954 26.1436 75.6152 25.6495 75.4138 24.8877C75.3709 24.7284 75.3642 24.604 75.3775 24.3236C75.3973 23.9666 75.3973 23.9634 75.318 23.9283C75.2058 23.8805 75.1232 23.9379 74.8657 24.2502C74.4364 24.7666 74.1624 25.3053 74.0435 25.8631C73.753 27.2145 74.5058 28.2696 75.7572 28.2696C76.9227 28.2696 78.3854 27.4408 80.6175 25.5125C81.8556 24.4447 82.0934 24.2439 82.516 23.9028C83.5066 23.1092 84.2693 22.6087 85.108 22.2007C86.8084 21.3784 88.4329 21.2573 89.8197 21.8501C90.6649 22.2135 91.3517 22.9817 91.4871 23.7211C91.5201 23.8933 91.5795 23.9984 91.6489 23.9984C91.6654 23.9984 91.7215 23.9602 91.771 23.9092C91.9097 23.7849 96.8096 16.6515 97.4106 15.6985C97.6516 15.3223 97.711 15.2554 97.8365 15.2235C97.9653 15.1949 101.313 15.2012 101.399 15.2331Z" fill="white"/>
<path d="M58.4623 15.1341C58.066 15.252 57.6401 15.7174 57.4684 16.2242C57.4024 16.4186 57.3892 16.5238 57.3892 16.8362C57.3892 17.1931 57.3925 17.2186 57.4651 17.2728C57.5344 17.3302 57.5509 17.3302 57.7127 17.2824C58.2972 17.1166 58.8915 16.5812 59.0995 16.0361C59.192 15.7971 59.1953 15.4433 59.1127 15.3158C59.0005 15.1532 58.6934 15.0672 58.4623 15.1341Z" fill="white"/>
<path d="M87.657 23.8039C86.7028 24.0302 85.5867 24.8334 84.5467 26.0383C83.5462 27.1985 82.9156 28.346 82.6514 29.4839C82.3212 30.9086 82.5986 31.8043 83.4571 32.0816C83.7212 32.1676 84.2198 32.1613 84.5632 32.0688C85.3325 31.8585 86.3131 31.2242 87.2245 30.3445C87.7065 29.8759 87.8782 29.6687 88.4164 28.9069C88.9216 28.1898 89.4334 27.3387 89.4334 27.2176C89.4334 27.2017 89.3706 27.1475 89.2947 27.0997C89.0206 26.9371 89.014 26.8766 89.2155 26.4367C89.7074 25.3562 89.7107 24.6135 89.2254 24.145C88.8556 23.7912 88.2645 23.6605 87.657 23.8039Z" fill="white"/>
</svg>
