<?xml version="1.0" standalone="no"?>
<!DOCTYPE svg PUBLIC "-//W3C//DTD SVG 20010904//EN"
 "http://www.w3.org/TR/2001/REC-SVG-20010904/DTD/svg10.dtd">
<svg version="1.0" xmlns="http://www.w3.org/2000/svg"
 width="3840.000000pt" height="2160.000000pt" viewBox="0 0 3840.000000 2160.000000"
 preserveAspectRatio="xMidYMid meet">

<g transform="translate(0.000000,2160.000000) scale(0.100000,-0.100000)"
fill="#fff" stroke="none">
<path d="M18200 17627 c-3 -2 -160 -7 -350 -11 -190 -4 -388 -9 -440 -11 -52
-3 -214 -10 -360 -15 -801 -31 -1691 -89 -2530 -166 -5126 -466 -9488 -1690
-12024 -3372 -1362 -904 -2134 -1909 -2261 -2946 -21 -167 -21 -446 0 -612
107 -874 672 -1725 1674 -2522 1818 -1446 5072 -2643 9056 -3332 1788 -308
3757 -522 5635 -610 118 -5 256 -12 305 -15 50 -2 182 -7 295 -10 113 -4 219
-8 235 -10 218 -27 3015 -27 3555 0 52 3 214 10 360 15 3892 150 7700 771
10630 1735 3762 1238 5962 2926 6185 4749 32 262 16 596 -41 856 -297 1348
-1712 2642 -4039 3695 -3087 1396 -7538 2305 -12390 2530 -176 8 -369 17 -430
20 -60 2 -222 7 -360 11 -137 3 -263 8 -280 11 -37 6 -2418 16 -2425 10z
m2370 -468 c5600 -141 10606 -1126 13780 -2711 810 -404 1406 -787 1950 -1252
235 -201 539 -523 718 -763 459 -611 647 -1292 536 -1938 -76 -448 -286 -882
-640 -1325 -127 -159 -485 -521 -664 -672 -1520 -1278 -4145 -2333 -7570
-3042 -3557 -736 -7787 -1031 -11940 -831 -4066 196 -7825 862 -10675 1892
-1494 539 -2724 1179 -3565 1854 -847 679 -1328 1378 -1461 2124 -20 112 -24
163 -24 370 0 267 10 353 69 580 356 1374 2026 2670 4759 3694 719 270 1455
501 2367 745 853 227 1963 465 2975 636 2247 381 4508 588 7040 643 271 6
2070 3 2345 -4z"/>
<path d="M18829 16626 c-2 -2 -233 -6 -514 -10 -280 -4 -523 -9 -540 -11 -16
-2 -138 -6 -270 -10 -500 -12 -1230 -49 -1900 -96 -3909 -271 -7439 -975
-9975 -1989 -1790 -715 -3008 -1544 -3597 -2446 -319 -490 -440 -1011 -353
-1518 220 -1282 1719 -2485 4310 -3458 332 -124 1003 -350 1364 -458 2535
-759 5667 -1259 9021 -1439 1062 -58 1768 -76 2925 -76 1149 0 1870 19 2920
75 5452 296 10181 1420 12748 3031 444 279 792 549 1097 854 411 410 661 796
791 1223 53 174 75 314 81 508 8 253 -20 454 -98 687 -298 895 -1218 1741
-2714 2497 -2808 1418 -7366 2363 -12470 2585 -318 13 -702 26 -1235 40 -260
7 -1585 16 -1591 11z m-3719 -1036 c812 -41 1369 -112 2971 -375 1018 -168
1428 -228 1949 -289 1228 -144 2391 -152 3430 -25 355 43 725 105 1050 176 91
19 190 35 221 35 108 0 194 -62 224 -164 20 -68 19 -119 -4 -210 -64 -248
-281 -466 -693 -696 -510 -286 -1021 -420 -1730 -454 -489 -23 -1043 21 -1642
132 -457 85 -849 181 -1841 454 -435 119 -581 158 -810 215 -182 46 -500 121
-511 121 -2 0 -4 -27 -4 -59 0 -33 -4 -71 -9 -85 -6 -15 -93 -86 -227 -187
-389 -290 -742 -581 -968 -799 -405 -388 -700 -746 -924 -1118 -64 -107 -62
-114 28 -106 30 2 208 11 395 19 451 20 833 45 862 56 13 5 23 14 24 21 0 7 0
78 0 158 -1 165 17 274 68 405 127 328 424 563 736 582 267 16 495 -144 560
-394 8 -31 15 -99 15 -149 0 -387 -271 -745 -670 -885 -77 -27 -90 -35 -90
-60 0 -32 55 -83 200 -184 78 -54 146 -107 151 -116 12 -24 11 -86 -2 -112
-17 -33 -70 -87 -102 -104 -53 -27 -126 -19 -214 25 -141 71 -262 160 -383
280 -63 63 -127 118 -142 122 -15 5 -53 6 -85 4 -32 -2 -155 -11 -273 -19
-449 -32 -1343 -123 -1436 -146 -23 -6 -53 -23 -66 -37 -14 -15 -89 -133 -168
-262 -1067 -1751 -1710 -2644 -2369 -3288 -838 -821 -1590 -1165 -2546 -1164
-297 1 -535 38 -783 124 -725 249 -1199 821 -1297 1563 -19 141 -22 439 -6
570 96 778 574 1440 1296 1795 168 83 345 144 485 167 182 30 348 -8 420 -95
47 -57 70 -115 70 -177 0 -103 -34 -149 -164 -218 -870 -463 -1241 -1193 -931
-1834 179 -369 544 -573 1025 -573 565 1 1162 271 1740 786 526 470 1087 1094
1617 1799 290 385 463 627 463 646 0 17 -8 19 -64 19 -94 0 -285 -26 -406 -56
-218 -54 -436 -153 -653 -298 -143 -94 -200 -114 -276 -97 -161 36 -206 209
-93 360 30 40 198 152 332 220 361 186 661 271 1377 391 218 36 288 51 304 66
12 10 167 213 344 449 178 237 371 489 430 560 135 163 506 534 730 730 428
374 622 512 1005 715 74 39 142 78 150 86 43 42 -29 60 -905 218 -1094 198
-1823 248 -2500 171 -637 -73 -1230 -269 -1605 -533 -291 -204 -519 -471 -620
-725 -60 -152 -73 -218 -74 -377 0 -131 3 -153 27 -227 44 -133 123 -234 233
-298 138 -81 362 -107 564 -65 432 89 963 471 1260 907 94 138 126 163 208
163 61 0 107 -29 136 -85 17 -33 21 -57 20 -135 0 -87 -3 -103 -38 -185 -93
-221 -264 -525 -398 -708 -393 -538 -874 -890 -1399 -1023 -222 -56 -509 -72
-707 -39 -476 80 -844 396 -996 857 -90 272 -94 611 -10 932 170 647 679 1202
1469 1602 624 315 1301 485 2125 533 209 12 892 12 1120 1z m15554 -2590 c44
-16 34 -52 -58 -194 -46 -72 -359 -554 -696 -1071 -1476 -2262 -2116 -3270
-2338 -3676 -110 -199 -125 -346 -45 -438 53 -62 102 -84 203 -89 184 -9 350
65 644 286 267 200 449 366 957 869 464 460 421 434 541 331 139 -119 208
-192 208 -220 0 -43 -339 -434 -675 -777 -663 -677 -1157 -1033 -1665 -1202
-434 -144 -802 -102 -1022 115 -126 123 -203 281 -228 468 -21 148 -35 151
-168 30 -356 -322 -749 -539 -1102 -607 -537 -103 -1034 132 -1268 600 -133
266 -181 644 -127 995 13 90 6 132 -25 138 -8 1 -60 -27 -115 -63 -180 -118
-462 -242 -674 -296 -234 -60 -501 -46 -686 36 -165 73 -326 228 -410 395 -58
115 -115 339 -115 450 0 41 -21 77 -39 66 -17 -11 -359 -533 -1023 -1566 -225
-349 -422 -647 -439 -662 l-29 -28 -509 0 c-558 0 -541 -2 -541 59 0 35 120
232 521 856 525 816 800 1261 1064 1721 222 385 249 449 249 590 1 82 -1 94
-27 132 -108 165 -382 81 -782 -238 -164 -131 -548 -514 -729 -727 -220 -258
-600 -742 -740 -942 -455 -649 -886 -1056 -1376 -1302 -467 -234 -911 -284
-1368 -153 -120 34 -330 140 -433 218 -220 167 -392 410 -479 676 -49 150 -72
162 -152 73 -156 -174 -437 -416 -603 -522 -35 -22 -61 -31 -91 -31 -39 0 -47
5 -99 63 -31 34 -88 108 -126 165 -71 106 -83 146 -59 192 5 10 90 89 187 176
476 425 571 549 754 994 131 318 306 646 472 882 126 179 224 296 387 458 247
247 435 382 750 539 217 108 410 182 605 231 384 98 587 92 661 -17 26 -39
114 -274 121 -323 3 -21 -1 -42 -9 -53 -7 -9 -76 -43 -153 -75 -193 -81 -332
-148 -460 -222 -494 -284 -839 -634 -1050 -1065 -172 -349 -222 -693 -144
-976 53 -191 188 -361 349 -437 47 -22 110 -46 140 -53 70 -17 266 -17 345 0
546 120 1045 634 1258 1296 82 254 118 491 119 770 0 251 -20 411 -83 655 -34
134 -35 151 -10 206 23 51 82 101 196 169 236 140 312 160 413 109 61 -30 93
-72 162 -205 111 -217 173 -460 195 -769 8 -108 17 -133 48 -128 13 2 110 100
246 248 532 579 777 789 1114 956 230 113 406 159 612 158 219 0 364 -52 484
-173 132 -132 198 -314 208 -574 6 -158 16 -192 50 -171 10 6 56 60 103 120
252 324 596 568 916 649 321 82 586 42 803 -121 124 -93 232 -258 266 -408 67
-288 -62 -644 -302 -835 -127 -101 -274 -154 -428 -154 -254 0 -460 155 -521
394 -13 50 -15 89 -11 177 6 112 6 113 -18 124 -34 15 -59 -3 -137 -101 -130
-162 -213 -331 -249 -506 -88 -424 140 -755 519 -755 353 0 796 260 1472 865
375 335 447 398 575 505 300 249 531 406 785 534 515 258 1007 296 1427 110
256 -114 464 -355 505 -587 10 -54 28 -87 49 -87 5 0 22 12 37 28 42 39 1526
2277 1708 2576 73 118 91 139 129 149 39 9 1053 7 1079 -3z"/>
<path d="M17660 13031 c-120 -37 -249 -183 -301 -342 -20 -61 -24 -94 -24
-192 0 -112 1 -120 23 -137 21 -18 26 -18 75 -3 177 52 357 220 420 391 28 75
29 186 4 226 -34 51 -127 78 -197 57z"/>
<path d="M26502 10311 c-289 -71 -627 -323 -942 -701 -303 -364 -494 -724
-574 -1081 -100 -447 -16 -728 244 -815 80 -27 231 -25 335 4 233 66 530 265
806 541 146 147 198 212 361 451 153 225 308 492 308 530 0 5 -19 22 -42 37
-83 51 -85 70 -24 208 149 339 150 572 3 719 -112 111 -291 152 -475 107z"/>
</g>
</svg>
