<svg width="126" height="126" viewBox="0 0 126 126" fill="none" xmlns="http://www.w3.org/2000/svg">
<g clip-path="url(#clip0_138_110)">
<path d="M125.491 36.0675C123.764 19.1678 112.523 15.6135 102.632 13.9913C97.6658 13.1513 88.8248 12.4215 83.1233 12.2115C78.1568 11.8965 66.4913 11.739 62.9895 11.739C59.535 11.739 47.817 11.8965 42.8505 12.2115C37.2015 12.4215 28.308 13.1565 23.3415 13.9913C13.4558 15.666 2.20502 19.215 0.483021 36.0623C0.0630211 40.6665 -0.0419789 46.683 0.0105211 53.1143C0.168021 63.7823 1.06052 71.001 1.58552 76.0253C1.94777 79.4745 3.36002 89.7803 5.19227 95.1143C7.70177 102.438 10.0013 104.58 12.6683 106.78C17.5875 110.754 25.641 112.009 27.3158 112.324C36.414 113.946 54.8258 114.256 62.937 114.256C71.043 114.256 89.4495 113.993 98.553 112.324C100.28 112.009 108.334 110.801 113.201 106.78C115.868 104.58 118.167 102.438 120.677 95.1143C122.514 89.7803 123.974 79.4745 124.341 76.0253C124.866 71.001 125.806 63.7823 125.911 53.1143C126.121 46.683 125.963 40.6718 125.491 36.0675ZM119.317 64.4123C118.325 77.9048 117.122 85.9635 115.395 91.8173C113.878 96.9465 112.051 100.343 109.279 102.806C104.727 106.937 98.448 107.825 94.7888 108.35C86.8403 109.552 73.5 109.919 62.9895 109.919C52.4738 109.919 39.1335 109.499 31.185 108.344C27.5258 107.825 21.2468 106.937 16.695 102.806C13.9755 100.343 12.096 96.894 10.6313 91.8173C8.90402 86.016 7.70177 77.9048 6.70952 64.4123C6.13202 56.3063 6.23702 43.1235 7.12952 36.0623C8.48402 25.4993 13.7183 20.2125 24.9113 18.228C30.1403 17.283 37.1963 16.6058 43.8428 16.2908C49.1768 15.9233 58.0178 15.7658 62.937 15.8183C67.851 15.7658 76.692 15.9758 82.026 16.2908C88.7198 16.6058 95.7285 17.2883 100.958 18.228C112.203 20.2125 117.437 25.5518 118.745 36.0623C119.789 43.1235 119.947 56.3063 119.322 64.4123M92.0115 20.37C89.1345 33.2903 87.9848 39.2018 85.6275 48.5625C83.3805 57.561 81.6008 65.877 78.6188 69.9038C75.537 73.983 71.4525 74.8755 68.6805 75.1853C67.2158 75.3428 66.171 75.3953 63.084 75.4478C59.9498 75.4478 58.8998 75.3428 57.435 75.1853C54.663 74.8703 50.5313 73.983 47.502 69.9038C44.4675 65.877 42.7403 57.561 40.4933 48.5625C38.031 39.2543 36.9338 33.2903 34.0043 20.37C34.0043 20.37 31.1273 20.475 29.82 20.58C28.0928 20.685 26.733 20.8425 25.2683 21.0525C25.2683 21.0525 26.9483 47.6228 27.678 58.8683C28.4655 70.6913 29.8725 90.6675 31.1798 105.735C31.1798 105.735 33.5843 106.103 37.6163 106.365C41.853 106.622 43.7325 106.622 43.7325 106.622C45.4598 99.981 47.6543 90.7725 50.064 86.8508C52.0485 83.6588 55.1355 83.2965 56.8628 83.0865C59.5823 82.719 61.8818 82.6665 62.9843 82.6665C64.029 82.614 66.3285 82.6665 69.1005 83.0865C70.8278 83.349 73.9148 83.664 75.8993 86.8508C78.3615 90.7725 80.5035 99.9758 82.2308 106.622C82.2308 106.622 84.1103 106.57 88.347 106.36C90.5023 106.266 92.651 106.056 94.7835 105.73C96.0908 90.6675 97.503 70.7385 98.2853 58.8683C99.0203 47.6228 100.695 21.0525 100.695 21.0525C99.225 20.8425 97.8705 20.685 96.1433 20.58C94.9358 20.475 92.0115 20.37 92.0115 20.37Z" fill="#FEFEFE"/>
</g>
<defs>
<clipPath id="clip0_138_110">
<rect width="126" height="126" fill="white"/>
</clipPath>
</defs>
</svg>
