<svg width="98" height="79" viewBox="0 0 98 79" fill="none" xmlns="http://www.w3.org/2000/svg">
<path d="M97.6042 19.1937C96.2609 6.45191 87.5179 3.77208 79.8249 2.54899C75.9623 1.91566 69.086 1.36541 64.6515 1.20708C60.7887 0.96958 51.7155 0.85083 48.9919 0.85083C46.3051 0.85083 37.1911 0.96958 33.3282 1.20708C28.9346 1.36541 22.0174 1.91958 18.1546 2.54899C10.4657 3.81166 1.71507 6.4875 0.375737 19.1898C0.0490707 22.6613 -0.032596 27.1975 0.00823733 32.0465C0.130737 40.0898 0.824903 45.5325 1.23324 49.3207C1.51499 51.9213 2.6134 59.6915 4.03849 63.7132C5.99032 69.235 7.77884 70.85 9.85318 72.5087C13.6792 75.505 19.9431 76.4512 21.2457 76.6887C28.3221 77.9117 42.6423 78.1454 48.9511 78.1454C55.2557 78.1454 69.5719 77.9471 76.6524 76.6887C77.9956 76.4512 84.2598 75.5404 88.0453 72.5087C90.1196 70.85 91.9077 69.235 93.8599 63.7132C95.2887 59.6915 96.4243 51.9213 96.7097 49.3207C97.1181 45.5325 97.8492 40.0898 97.9308 32.0465C98.0942 27.1975 97.9713 22.6652 97.6042 19.1937ZM92.8022 40.5648C92.0306 50.7378 91.0949 56.8138 89.7517 61.2273C88.5718 65.0946 87.1508 67.6554 84.9948 69.5125C81.4544 72.6271 76.5707 73.2966 73.7247 73.6925C67.5425 74.5987 57.1667 74.8754 48.9919 74.8754C40.813 74.8754 30.4372 74.5588 24.2551 73.6879C21.409 73.2966 16.5253 72.6271 12.9851 69.5125C10.8699 67.6554 9.40805 65.055 8.26884 61.2273C6.9254 56.8533 5.99032 50.7378 5.21857 40.5648C4.7694 34.4532 4.85107 24.5138 5.54524 19.1898C6.59874 11.2257 10.6698 7.23958 19.3755 5.74333C23.4425 5.03083 28.9305 4.52024 34.1 4.28274C38.2487 4.00566 45.125 3.88691 48.9511 3.92649C52.7731 3.88691 59.6494 4.04524 63.7981 4.28274C69.0043 4.52024 74.4556 5.03483 78.5229 5.74333C87.269 7.23958 91.3399 11.2652 92.3573 19.1898C93.1693 24.5138 93.2922 34.4532 92.806 40.5648M71.5645 7.35833C69.3269 17.0998 68.4327 21.5569 66.5992 28.6146C64.8516 35.3992 63.4673 41.6692 61.148 44.7053C58.751 47.7808 55.5742 48.4538 53.4182 48.6873C52.279 48.8061 51.4664 48.8457 49.0654 48.8853C46.6277 48.8853 45.811 48.8061 44.6717 48.6873C42.5157 48.4498 39.3022 47.7808 36.9461 44.7053C34.5859 41.6692 33.2425 35.3992 31.4948 28.6146C29.5797 21.5965 28.7263 17.0998 26.4478 7.35833C26.4478 7.35833 24.2102 7.4375 23.1934 7.51666C21.85 7.59583 20.7924 7.71458 19.6532 7.87291C19.6532 7.87291 20.9598 27.9061 21.5274 36.3848C22.1399 45.299 23.2342 60.3604 24.251 71.7208C24.251 71.7208 26.1212 71.9983 29.2572 72.1958C32.5524 72.3896 34.0142 72.3896 34.0142 72.3896C35.3577 67.3825 37.0645 60.4396 38.9387 57.4828C40.4822 55.0761 42.8832 54.8029 44.2267 54.6446C46.3418 54.3675 48.1303 54.3279 48.9878 54.3279C49.8004 54.2883 51.5889 54.3279 53.7449 54.6446C55.0883 54.8425 57.4893 55.08 59.0328 57.4828C60.9479 60.4396 62.6139 67.3786 63.9573 72.3896C63.9573 72.3896 65.4192 72.3504 68.7144 72.1921C70.3907 72.1212 72.0619 71.9629 73.7206 71.7171C74.7373 60.3604 75.8357 45.3346 76.4442 36.3848C77.0158 27.9061 78.3184 7.87291 78.3184 7.87291C77.175 7.71458 76.1216 7.59583 74.7782 7.51666C73.839 7.4375 71.5645 7.35833 71.5645 7.35833Z" fill="#FEFEFE"/>
</svg>
