<svg width="115" height="57" viewBox="0 0 115 57" fill="none" xmlns="http://www.w3.org/2000/svg">
<path d="M57.4717 56.5532C89.0178 56.5532 114.566 43.8885 114.566 28.2831C114.566 12.6778 89.0178 0 57.4717 0C25.9392 0 0.377441 12.6647 0.377441 28.2701C0.377441 43.8755 25.9392 56.5532 57.4717 56.5532ZM68.1947 42.66C67.2605 44.7773 65.6087 49.3387 61.8584 51.1423C60.7076 51.6651 59.286 51.9396 58.0539 51.9788C57.7696 52.018 57.5801 51.9788 57.5124 51.9788C46.9654 51.9788 37.1631 50.5934 28.9449 48.1624C28.8772 48.1232 28.6877 48.0578 28.6877 48.0578C27.8618 47.8095 27.4691 47.4697 27.4691 47.0514C27.4691 46.6986 27.6452 46.4241 27.943 46.1496C28.0513 46.0451 28.2273 45.9013 28.444 45.6922C30.3123 44.163 36.08 40.1636 46.7894 36.1512C50.5804 34.7658 55.292 33.0275 60.2337 32.0081C63.1582 31.4722 73.8946 29.9169 68.1947 42.66ZM97.1006 14.1808C97.2766 13.8279 97.5745 13.5273 98.0754 13.5273C98.3598 13.4881 98.6847 13.5665 99.2263 13.9063C105.928 17.8926 109.936 22.8722 109.936 28.2701C109.936 38.0333 96.9652 46.398 78.4438 50.0706C77.2523 50.3189 76.4671 50.3189 76.1828 50.0052C76.0067 49.7961 75.9255 49.5216 76.1828 49.1426C76.2911 48.9335 76.44 48.7636 76.6837 48.5153C86.7838 37.0138 94.4876 20.0361 96.6403 15.1087C96.7757 14.7036 96.9382 14.3899 97.1006 14.1808ZM46.9248 13.8018C47.859 11.6844 49.5108 7.12307 53.2611 5.31943C54.4119 4.77049 55.8335 4.52217 57.0656 4.48296C57.3499 4.48296 57.5665 4.48296 57.6342 4.48296C68.1405 4.48296 77.9564 5.90757 86.1611 8.29935C86.2287 8.29935 86.4183 8.3647 86.486 8.40391C87.2442 8.65224 87.6368 8.99205 87.6368 9.41029C87.6368 9.78931 87.4202 10.0376 87.1629 10.3121C87.0546 10.4167 86.8786 10.5866 86.662 10.7696C84.753 12.2987 79.0666 16.2981 68.3165 20.2583C64.5256 21.6829 59.814 23.382 54.8722 24.4406C51.9478 25.0026 41.2248 26.571 46.9248 13.8018ZM36.5809 6.46957C37.7724 6.22125 38.7066 6.22125 38.9503 6.53492C39.1263 6.70483 39.2075 7.01851 38.9503 7.39753C38.842 7.60665 38.693 7.77656 38.4764 8.05102C28.3627 19.5525 20.6725 36.5302 18.5198 41.4184C18.3438 41.7712 18.1949 42.111 18.0459 42.3202C17.8293 42.673 17.545 42.9475 17.0711 42.9737C16.8139 42.9737 16.4619 42.9083 15.8797 42.5946C9.17784 38.6083 5.04842 33.6287 5.04842 28.2309C5.10258 18.5069 18.073 10.1291 36.5809 6.46957Z" fill="white"/>
</svg>
