<svg width="49" height="37" viewBox="0 0 49 37" fill="none" xmlns="http://www.w3.org/2000/svg">
<path d="M13.6259 0.927013C8.16045 1.55462 3.6595 4.29327 1.67378 8.21106C0.463443 10.6074 0.0663006 13.7264 0.652559 16.37C1.6927 21.0865 5.39936 24.7381 10.7324 26.3166C12.6614 26.8871 16.1222 27.1344 22.3819 27.1534H26.1075V31.7178V36.2822H30.079H34.0504L34.0882 26.5258L34.1449 16.7884L38.8161 16.7313L43.4873 16.6933L46.0403 13.365L48.5934 10.0368L33.71 10.0558H18.8266L16.3492 13.327L13.8907 16.5982L19.9045 16.6552L25.9184 16.6933V18.5V20.3068H20.4908C14.4013 20.3068 13.1531 20.1356 11.4511 19.1657C9.42752 18.0055 8.46304 16.3319 8.46304 14.0307C8.46304 11.6724 9.54099 9.88468 11.7158 8.72456C13.7394 7.64051 14.5147 7.56444 23.7625 7.56444H32.1214L34.5043 4.44542C35.8092 2.73376 36.9439 1.19327 37.0006 1.02211C37.0951 0.755848 35.9415 0.736828 26.0697 0.755848C20.018 0.774864 14.4013 0.850941 13.6259 0.927013Z" fill="#BD192B"/>
</svg>
