<?xml version="1.0" standalone="no"?>
<!DOCTYPE svg PUBLIC "-//W3C//DTD SVG 20010904//EN"
 "http://www.w3.org/TR/2001/REC-SVG-20010904/DTD/svg10.dtd">
<svg version="1.0" xmlns="http://www.w3.org/2000/svg"
 width="735.000000pt" height="489.000000pt" viewBox="0 0 735.000000 489.000000"
 preserveAspectRatio="xMidYMid meet">

<g transform="translate(0.000000,489.000000) scale(0.100000,-0.100000)"
fill="#BD192B" stroke="none">
<path d="M3100 3369 c-289 -33 -527 -177 -632 -383 -64 -126 -85 -290 -54
-429 55 -248 251 -440 533 -523 102 -30 285 -43 616 -44 l197 0 0 -240 0 -240
210 0 210 0 2 513 3 512 247 3 247 2 135 175 135 175 -787 -1 -787 0 -131
-172 -130 -172 318 -3 318 -2 0 -95 0 -95 -287 0 c-322 0 -388 9 -478 60 -107
61 -158 149 -158 270 0 124 57 218 172 279 107 57 148 61 637 61 l442 0 126
164 c69 90 129 171 132 180 5 14 -56 15 -578 14 -320 -1 -617 -5 -658 -9z"/>
</g>
</svg>
