<svg width="75" height="75" viewBox="0 0 75 75" fill="none" xmlns="http://www.w3.org/2000/svg">
<g clip-path="url(#clip0_311_2)">
<path d="M37.5 0C35.1656 0 30.25 0.040625 29.0844 0.165625C28 0.290625 27.7094 0.625 27.0844 1.41563C26.25 2.54063 19.0844 14.625 15.375 21.3344C12.6656 26.1656 8.41562 34.5844 8.04062 35.5C7.66562 36.2906 7.5 36.9594 7.5 37.5C7.5 38.0844 7.66562 38.75 8.04062 39.5C8.91562 41.4594 11.625 46.7906 15.375 53.6656C19.2906 60.7906 26.375 72.5844 27.125 73.625C27.9156 74.7094 28.4594 74.75 29.1656 74.8344C30.25 74.9156 34.9594 75 37.5 75C40.2094 75 45.125 74.875 45.8344 74.8344C46.5 74.7906 47.0844 74.7094 47.875 73.625C48.5844 72.625 56.2094 59.9156 59.625 53.6656C62.9156 47.6656 66.5406 40.4594 66.9594 39.5C67.4156 38.4594 67.5 37.9156 67.5 37.5C67.5 37.1656 67.4156 36.4594 66.9594 35.5C64.629 30.7197 62.1835 25.9965 59.625 21.3344C55.6656 14.2094 48.625 2.41563 47.8344 1.375C47.0406 0.334375 46.5844 0.25 45.875 0.209375H45.75C44.7094 0.040625 40.2094 0 37.5 0ZM44.8344 2.875C45.125 2.875 45.2906 2.91562 45.3344 3C44.0844 5.45937 40.9156 11.6656 38.6656 17.375C41.8667 23.2724 44.8961 29.2614 47.75 35.3344C48.25 36.4156 48.5 36.9594 48.5 37.5C48.5 38.0406 48.25 38.5844 47.75 39.6656C43.9156 47.9156 34.9594 64.8344 31.25 71.125C30.875 71.75 30.4594 72.0844 30.1656 72.0844C29.875 72.0844 29.7094 72.0406 29.6656 71.9594C30.9156 69.5 34.0844 63.2906 36.3344 57.5844C33.1333 51.687 30.1039 45.698 27.25 39.625C26.75 38.5406 26.5 38 26.5 37.4594C26.5 36.9156 26.75 36.375 27.2906 35.2906C31.0406 27.0406 40 10.125 43.75 3.83437C44.125 3.20937 44.5406 2.875 44.8344 2.875Z" fill="white"/>
</g>
<defs>
<clipPath id="clip0_311_2">
<rect width="75" height="75" fill="white"/>
</clipPath>
</defs>
</svg>
