<?xml version="1.0" standalone="no"?>
<!DOCTYPE svg PUBLIC "-//W3C//DTD SVG 20010904//EN"
 "http://www.w3.org/TR/2001/REC-SVG-20010904/DTD/svg10.dtd">
<svg version="1.0" xmlns="http://www.w3.org/2000/svg"
 width="920.000000pt" height="920.000000pt" viewBox="0 0 920.000000 920.000000"
 preserveAspectRatio="xMidYMid meet">

<g transform="translate(0.000000,920.000000) scale(0.100000,-0.100000)"
fill="#fff" stroke="none">
<path d="M4362 9129 c-1420 -71 -2738 -823 -3539 -2019 -220 -330 -401 -698
-527 -1073 -274 -815 -308 -1688 -100 -2530 254 -1029 876 -1948 1747 -2580
925 -673 2072 -968 3215 -827 967 119 1878 557 2586 1241 665 642 1114 1459
1296 2357 58 285 80 491 87 797 8 350 -13 621 -73 935 -285 1516 -1329 2792
-2759 3373 -479 195 -954 299 -1490 327 -207 11 -205 11 -443 -1z m693 -543
c807 -101 1534 -418 2140 -935 599 -510 1053 -1213 1258 -1951 187 -672 205
-1323 55 -1985 -322 -1423 -1413 -2575 -2818 -2973 -400 -113 -760 -159 -1183
-149 -248 5 -420 22 -637 63 -1627 303 -2903 1573 -3214 3199 -53 278 -61 376
-61 745 0 361 8 459 57 725 261 1420 1286 2605 2658 3073 313 106 591 163
1005 206 98 10 616 -3 740 -18z"/>
<path d="M4385 7924 c-296 -29 -411 -47 -600 -96 -66 -17 -121 -32 -123 -33
-2 -2 91 -228 433 -1050 89 -214 238 -573 331 -797 103 -248 171 -402 176
-394 4 7 129 307 279 667 149 360 354 854 456 1099 102 245 188 452 190 461 3
12 -13 20 -74 37 -116 31 -312 69 -453 87 -117 15 -527 28 -615 19z"/>
<path d="M2750 7366 c-200 -134 -370 -277 -545 -458 -123 -127 -315 -357 -315
-377 0 -7 240 -519 677 -1446 86 -181 173 -366 193 -410 21 -44 147 -312 280
-595 134 -283 295 -627 360 -765 64 -137 123 -263 132 -279 l15 -28 78 188
c43 104 139 338 215 519 75 182 166 399 200 483 l63 152 494 -2 494 -3 147
-355 c82 -195 206 -495 278 -667 71 -171 132 -309 135 -305 6 6 52 103 189
397 21 44 148 314 282 600 282 598 432 917 598 1270 64 138 208 444 320 680
249 528 260 553 260 566 0 14 -113 159 -205 264 -193 219 -417 415 -668 583
-76 50 -142 92 -147 92 -4 0 -269 -609 -587 -1352 l-579 -1353 -518 0 -517 0
-578 1349 c-318 743 -582 1351 -587 1353 -5 1 -79 -44 -164 -101z"/>
<path d="M1401 5533 c-59 -203 -102 -432 -122 -653 -17 -191 -6 -564 21 -745
76 -509 249 -960 525 -1375 134 -201 229 -316 429 -515 248 -247 457 -406 741
-562 140 -77 285 -146 292 -139 3 3 -45 112 -105 243 -61 131 -124 267 -140
303 -59 128 -960 2085 -1064 2310 -17 36 -68 146 -113 245 -45 99 -99 216
-120 260 -20 44 -100 217 -177 385 -77 168 -141 307 -143 308 -2 2 -13 -27
-24 -65z"/>
<path d="M7615 5268 c-81 -178 -323 -703 -538 -1168 -214 -465 -523 -1135
-687 -1490 -163 -355 -309 -670 -323 -700 -132 -288 -166 -364 -163 -367 6 -6
210 93 331 162 543 307 1003 778 1294 1324 206 389 324 764 377 1204 22 180
21 546 0 732 -26 218 -114 625 -136 625 -3 0 -73 -145 -155 -322z"/>
<path d="M4583 3534 c-4 -10 -210 -494 -459 -1074 l-452 -1055 37 -13 c56 -20
285 -69 401 -86 438 -64 957 -34 1337 76 l72 21 -19 46 c-49 121 -898 2092
-903 2098 -4 3 -10 -3 -14 -13z"/>
</g>
</svg>
