<svg width="94" height="91" viewBox="0 0 94 91" fill="none" xmlns="http://www.w3.org/2000/svg">
<path d="M44.2177 0.0906273C29.6164 0.795391 16.0639 8.25993 7.82756 20.1317C5.56538 23.4074 3.70423 27.0602 2.40862 30.7826C-0.408818 38.8725 -0.758427 47.5381 1.38036 55.896C3.99214 66.1101 10.3879 75.2323 19.3441 81.5057C28.8555 88.1861 40.6497 91.1143 52.4027 89.7147C62.346 88.5335 71.7135 84.1858 78.9936 77.3962C85.8315 71.0236 90.4484 62.9138 92.3198 54.0001C92.9162 51.1711 93.1424 49.1263 93.2144 46.0888C93.2967 42.6147 93.0807 39.9246 92.4638 36.8078C89.5332 21.7596 78.7982 9.09373 64.094 3.32658C59.1687 1.39096 54.2844 0.358636 48.7729 0.0807015C46.6444 -0.0284872 46.665 -0.0284876 44.2177 0.0906273ZM51.3436 5.48057C59.6417 6.48312 67.1171 9.62975 73.3484 14.7616C79.5077 19.824 84.176 26.8022 86.2839 34.1277C88.2068 40.7982 88.3919 47.2601 86.8495 53.8313C83.5385 67.9564 72.3201 79.3914 57.8731 83.342C53.76 84.4637 50.0583 84.9203 45.7087 84.8211C43.1586 84.7714 41.39 84.6027 39.1587 84.1957C22.4289 81.1881 9.30825 68.5817 6.11036 52.4416C5.56538 49.6821 5.48312 48.7094 5.48312 45.0466C5.48312 41.4632 5.56538 40.4904 6.06923 37.8501C8.75299 23.7548 19.2927 11.9922 33.4004 7.34671C36.6189 6.29453 39.4775 5.72873 43.7345 5.3019C44.7422 5.20264 50.0685 5.33168 51.3436 5.48057Z" fill="white"/>
<path d="M44.4139 11.995C41.3702 12.2829 40.1877 12.4616 38.2443 12.948C37.5657 13.1167 37.0001 13.2656 36.9796 13.2755C36.959 13.2954 37.9153 15.5387 41.4319 23.6981C42.3471 25.8223 43.8792 29.3858 44.8355 31.6093C45.8946 34.071 46.5938 35.5997 46.6452 35.5202C46.6864 35.4508 47.9717 32.4729 49.5141 28.8994C51.0462 25.326 53.1541 20.4224 54.203 17.9905C55.2518 15.5586 56.1361 13.5038 56.1567 13.4145C56.1875 13.2954 56.023 13.216 55.3957 13.0472C54.203 12.7395 52.1876 12.3623 50.7377 12.1836C49.5346 12.0347 45.3188 11.9057 44.4139 11.995Z" fill="white"/>
<path d="M27.6018 17.5339C25.5453 18.864 23.7973 20.2835 21.9978 22.0801C20.7331 23.3408 18.7588 25.6238 18.7588 25.8223C18.7588 25.8918 21.2266 30.974 25.7201 40.1757C26.6044 41.9723 27.499 43.8087 27.7047 44.2454C27.9206 44.6822 29.2162 47.3424 30.5838 50.1515C31.9617 52.9607 33.6172 56.3753 34.2855 57.7451C34.9436 59.105 35.5503 60.3557 35.6428 60.5145L35.7971 60.7925L36.5991 58.9263C37.0413 57.894 38.0284 55.5713 38.8099 53.7746C39.5811 51.968 40.5168 49.8141 40.8664 48.9802L41.5142 47.4715L46.5938 47.4913L51.6734 47.5211L53.185 51.0449C54.0282 52.9805 55.3032 55.9584 56.0436 57.6657C56.7736 59.3631 57.4009 60.7329 57.4317 60.6932C57.4934 60.6337 57.9664 59.6708 59.3751 56.7525C59.5911 56.3157 60.897 53.6357 62.2748 50.7968C65.1745 44.8609 66.7169 41.6944 68.4238 38.1904C69.0819 36.8206 70.5626 33.7832 71.7143 31.4406C74.2746 26.1995 74.3878 25.9514 74.3878 25.8223C74.3878 25.6833 73.2258 24.244 72.2798 23.2018C70.2953 21.0279 67.992 19.0824 65.411 17.4148C64.6295 16.9185 63.9509 16.5016 63.8995 16.5016C63.8584 16.5016 61.1335 22.5467 57.8636 29.9219L51.9099 43.3521H46.5836H41.2674L35.3241 29.9616C32.0542 22.5864 29.3396 16.5512 29.2882 16.5313C29.2368 16.5214 28.4759 16.9681 27.6018 17.5339Z" fill="white"/>
<path d="M13.7306 35.7287C13.1239 37.7437 12.6818 40.0168 12.4761 42.2105C12.3013 44.1064 12.4144 47.8089 12.6921 49.6056C13.4736 54.658 15.2524 59.1348 18.0904 63.2542C19.4683 65.2493 20.4452 66.3909 22.5017 68.3662C25.0518 70.818 27.2008 72.3962 30.1211 73.9447C31.5607 74.7091 33.0517 75.394 33.1236 75.3245C33.1545 75.2947 32.6609 74.2127 32.044 72.9124C31.4167 71.6121 30.7689 70.2621 30.6044 69.9047C29.9977 68.6342 20.7331 49.2085 19.6637 46.9751C19.4889 46.6178 18.9645 45.5259 18.5018 44.5432C18.039 43.5605 17.4838 42.3991 17.2678 41.9624C17.0622 41.5256 16.2396 39.8084 15.4478 38.1408C14.6561 36.4731 13.998 35.0934 13.9774 35.0835C13.9568 35.0636 13.8437 35.3515 13.7306 35.7287Z" fill="white"/>
<path d="M77.6268 38.3593C76.7939 40.1262 74.3055 45.3375 72.0947 49.9532C69.8942 54.5689 66.7169 61.2195 65.0306 64.7433C63.3545 68.2671 61.8532 71.3939 61.7093 71.6916C60.352 74.5504 60.0024 75.3048 60.0332 75.3346C60.0949 75.3941 62.1926 74.4114 63.4368 73.7265C69.0202 70.6792 73.7502 66.0039 76.7425 60.5842C78.8607 56.7229 80.074 53.0005 80.619 48.633C80.8452 46.8462 80.8349 43.2132 80.619 41.367C80.3517 39.203 79.4468 35.1631 79.2206 35.1631C79.1897 35.1631 78.4699 36.6024 77.6268 38.3593Z" fill="white"/>
<path d="M46.45 55.5713C46.4089 55.6706 44.2906 60.4749 41.7303 66.2321L37.0825 76.7043L37.463 76.8333C38.0388 77.0319 40.3935 77.5182 41.5863 77.687C46.0901 78.3223 51.4268 78.0245 55.3342 76.9326L56.0745 76.7241L55.8791 76.2675C55.3753 75.0665 46.6454 55.5018 46.5939 55.4423C46.5528 55.4125 46.4911 55.4721 46.45 55.5713Z" fill="white"/>
</svg>
