<svg width="52" height="52" viewBox="0 0 52 52" fill="none" xmlns="http://www.w3.org/2000/svg">
<path d="M21.125 36.5625V41.4375C21.125 41.7454 21.2989 42.0266 21.5743 42.1647L22.75 42.7521V49.5625C22.75 50.011 23.114 50.375 23.5625 50.375H28.4375C28.886 50.375 29.25 50.011 29.25 49.5625V42.7521L30.4257 42.1639C30.7011 42.0266 30.875 41.7454 30.875 41.4375V36.5625C30.875 34.9375 29.9098 33.5424 28.5269 32.8933C28.9721 32.3367 29.25 31.6412 29.25 30.875C29.25 29.0826 27.7924 27.625 26 27.625C24.2076 27.625 22.75 29.0826 22.75 30.875C22.75 31.6412 23.0279 32.3367 23.4731 32.8933C22.0902 33.5424 21.125 34.9375 21.125 36.5625ZM26 29.25C26.8962 29.25 27.625 29.9788 27.625 30.875C27.625 31.7712 26.8962 32.5 26 32.5C25.1038 32.5 24.375 31.7712 24.375 30.875C24.375 29.9788 25.1038 29.25 26 29.25ZM22.75 36.5625C22.75 35.2186 23.8436 34.125 25.1875 34.125H26.8125C28.1564 34.125 29.25 35.2186 29.25 36.5625V40.9354L28.0743 41.5236C27.7989 41.6609 27.625 41.9421 27.625 42.25V48.75H24.375V42.25C24.375 41.9421 24.2011 41.6609 23.9257 41.5228L22.75 40.9354V36.5625Z" fill="#BD192B"/>
<path d="M32.5 36.5625V41.4375C32.5 41.7454 32.6739 42.0266 32.9493 42.1647L34.125 42.7521V49.5625C34.125 50.011 34.489 50.375 34.9375 50.375H39.8125C40.261 50.375 40.625 50.011 40.625 49.5625V42.7521L41.8007 42.1639C42.0761 42.0266 42.25 41.7454 42.25 41.4375V36.5625C42.25 34.9375 41.2848 33.5424 39.9019 32.8933C40.3471 32.3367 40.625 31.6412 40.625 30.875C40.625 29.0826 39.1674 27.625 37.375 27.625C35.5826 27.625 34.125 29.0826 34.125 30.875C34.125 31.6412 34.4029 32.3367 34.8481 32.8933C33.4652 33.5424 32.5 34.9375 32.5 36.5625ZM37.375 29.25C38.2712 29.25 39 29.9788 39 30.875C39 31.7712 38.2712 32.5 37.375 32.5C36.4788 32.5 35.75 31.7712 35.75 30.875C35.75 29.9788 36.4788 29.25 37.375 29.25ZM34.125 36.5625C34.125 35.2186 35.2186 34.125 36.5625 34.125H38.1875C39.5314 34.125 40.625 35.2186 40.625 36.5625V40.9354L39.4493 41.5236C39.1739 41.6609 39 41.9421 39 42.25V48.75H35.75V42.25C35.75 41.9421 35.5761 41.6609 35.3007 41.5228L34.125 40.9354V36.5625Z" fill="#BD192B"/>
<path d="M9.75 36.5625V41.4375C9.75 41.7454 9.92388 42.0266 10.1993 42.1647L11.375 42.7521V49.5625C11.375 50.011 11.739 50.375 12.1875 50.375H17.0625C17.511 50.375 17.875 50.011 17.875 49.5625V42.7521L19.0507 42.1639C19.3261 42.0266 19.5 41.7454 19.5 41.4375V36.5625C19.5 34.9375 18.5348 33.5424 17.1519 32.8933C17.5971 32.3367 17.875 31.6412 17.875 30.875C17.875 29.0826 16.4174 27.625 14.625 27.625C12.8326 27.625 11.375 29.0826 11.375 30.875C11.375 31.6412 11.6529 32.3367 12.0981 32.8933C10.7153 33.5424 9.75 34.9375 9.75 36.5625ZM14.625 29.25C15.5212 29.25 16.25 29.9788 16.25 30.875C16.25 31.7712 15.5212 32.5 14.625 32.5C13.7288 32.5 13 31.7712 13 30.875C13 29.9788 13.7288 29.25 14.625 29.25ZM11.375 36.5625C11.375 35.2186 12.4686 34.125 13.8125 34.125H15.4375C16.7814 34.125 17.875 35.2186 17.875 36.5625V40.9354L16.6993 41.5236C16.4239 41.6609 16.25 41.9421 16.25 42.25V48.75H13V42.25C13 41.9421 12.8261 41.6609 12.5507 41.5228L11.375 40.9354V36.5625Z" fill="#BD192B"/>
<path d="M47.8376 21.5046C47.8124 21.1877 47.7709 20.8716 47.7271 20.5312C47.2769 17.243 46.0492 14.0417 44.1699 11.2671C43.9977 11.0168 43.8165 10.7666 43.6369 10.5415C43.4038 10.2238 43.1616 9.91181 42.9106 9.60631C41.1531 7.46943 38.9642 5.65512 36.5251 4.32181C36.283 4.18775 36.0409 4.06262 35.789 3.93262C34.2388 3.15831 32.6081 2.57331 30.9473 2.19468C29.5864 1.87537 28.1612 1.68768 26.7109 1.63731C26.2381 1.62025 25.7627 1.62025 25.2899 1.63731C21.8018 1.75431 18.5006 2.657 15.4789 4.321C15.4789 4.321 15.4789 4.321 15.4781 4.321C12.4247 5.99068 9.77844 8.39487 7.826 11.2744C5.76469 14.3237 4.498 17.8581 4.16487 21.4891C4.09662 22.1692 4.0625 22.8687 4.0625 23.5667C4.0625 24.0363 4.07712 24.5059 4.10719 24.9731C4.1405 25.4899 4.19575 26.0034 4.26481 26.5144C4.63288 29.2387 5.50469 31.8712 6.84612 34.2486C6.84612 34.2494 6.84694 34.2494 6.84694 34.2502C6.84694 34.2511 6.84775 34.2519 6.84775 34.2519C7.03544 34.5891 7.23125 34.9206 7.43681 35.2464L8.81156 34.3811C8.62144 34.0788 8.43944 33.7709 8.26312 33.454C7.88206 32.7788 7.54813 32.0792 7.24994 31.3651C7.98038 31.6023 8.7425 31.8306 9.53713 32.0459L9.96206 30.477C8.74331 30.1471 7.60337 29.7872 6.55363 29.4086C5.98894 27.5268 5.6875 25.5581 5.6875 23.5667C5.6875 22.9224 5.71919 22.2764 5.78175 21.6427C5.798 21.4688 5.82563 21.2974 5.84594 21.1243C8.073 21.9271 10.4707 22.5917 13.0073 23.1044C13.0073 23.106 13.0073 23.1101 13.0073 23.1117C13.0163 24.0989 13.0674 25.0974 13.1584 26.0789L14.7761 25.9294C14.7006 25.1064 14.6591 24.2671 14.6413 23.4042C18.0416 23.9965 21.5776 24.3182 25.1867 24.3605V26.0042H26.8117V24.3621C30.1324 24.3239 33.3954 24.0493 36.5438 23.5464C36.5259 24.3442 36.4837 25.1446 36.4114 25.9286L38.0291 26.0797C38.1152 25.1551 38.1656 24.2094 38.1786 23.2977C38.1794 23.2872 38.1786 23.2758 38.1794 23.2652C41.0321 22.7257 43.7019 22.0051 46.1589 21.1186C46.1801 21.2933 46.2044 21.4647 46.2191 21.6476C46.2808 22.2764 46.3125 22.9224 46.3125 23.5667C46.3125 25.5557 46.0119 27.5211 45.4472 29.4029C44.3909 29.7823 43.2551 30.1447 42.0363 30.4778L42.4637 32.0459C43.2591 31.829 44.018 31.5982 44.7517 31.3594C44.4519 32.0784 44.1155 32.7821 43.732 33.4613C43.5614 33.7717 43.3745 34.0829 43.1884 34.377L44.5616 35.2456C44.7655 34.923 44.9686 34.5842 45.1514 34.2519C46.9739 31.0214 47.9375 27.3269 47.9375 23.5667C47.9375 22.8687 47.9034 22.1692 47.8376 21.5046ZM13.0447 21.4517C10.5609 20.9366 8.22412 20.2769 6.10594 19.4961C6.63487 16.8969 7.67162 14.4017 9.17069 12.1852C9.20725 12.1316 9.24788 12.0812 9.28444 12.0276C10.7916 12.7166 12.4223 13.3129 14.1741 13.7899C13.5159 16.2517 13.1389 18.8192 13.0447 21.4517ZM14.6258 12.2307C13.0804 11.8106 11.6326 11.2963 10.2895 10.7048C11.9421 8.69468 13.9734 6.99575 16.2597 5.74612C16.3451 5.699 16.432 5.65918 16.5181 5.61368C16.7692 5.77862 17.0454 5.93706 17.3363 6.08981C16.2289 7.98212 15.3197 10.0394 14.6258 12.2307ZM25.1875 22.7363C21.58 22.6932 18.0472 22.3666 14.6591 21.7613C14.7339 19.1516 15.0987 16.6084 15.7528 14.1734C18.6908 14.8421 21.8782 15.2142 25.1875 15.267V22.7363ZM25.1875 13.6428C22.0342 13.5908 19.0011 13.2414 16.2094 12.6142C16.8813 10.5187 17.758 8.55575 18.8256 6.75768C20.6749 7.4605 22.8832 7.8765 25.1875 7.95612V13.6428ZM26 6.34981C23.3366 6.34981 20.7813 5.86962 18.8029 4.99618C18.6298 4.92062 18.4844 4.83775 18.3243 4.75812C20.54 3.8465 22.8922 3.34275 25.3443 3.2615C25.5629 3.25418 25.7782 3.25012 26 3.25418C26.2129 3.24931 26.4355 3.25418 26.6541 3.2615C27.9979 3.30862 29.3174 3.48168 30.5809 3.77825C31.6363 4.01875 32.6739 4.35431 33.6814 4.76706C33.345 4.93525 32.9867 5.09775 32.5943 5.24887C30.6914 5.96875 28.4115 6.34981 26 6.34981ZM35.0301 12.7799C32.4521 13.3056 29.6806 13.5949 26.8125 13.6428V7.94231C28.8503 7.87325 30.7832 7.54743 32.4976 6.98275C33.5319 8.77675 34.3793 10.7194 35.0301 12.7799ZM26.8125 22.7371V15.267C29.8334 15.2182 32.7584 14.9095 35.4802 14.3464C36.1181 16.775 36.4707 19.3084 36.5341 21.9051C33.3954 22.4194 30.134 22.6981 26.8125 22.7371ZM34.034 6.40262C34.5694 6.15643 35.0504 5.88993 35.4794 5.60718C35.5672 5.6535 35.6541 5.69737 35.7427 5.74612C38.0218 6.99168 40.0611 8.68981 41.7073 10.7056C40.1505 11.3914 38.441 11.9593 36.6186 12.4135C35.9548 10.2831 35.0886 8.27056 34.034 6.40262ZM38.1485 21.6151C38.0664 18.9939 37.7024 16.4337 37.0606 13.9751C39.0951 13.4665 40.9922 12.8141 42.7131 12.0276C42.7497 12.0796 42.7928 12.1324 42.8285 12.1836C44.3203 14.3871 45.3667 16.8871 45.8973 19.4871C43.5272 20.3622 40.9297 21.0756 38.1485 21.6151Z" fill="#BD192B"/>
</svg>
