<svg width="52" height="52" viewBox="0 0 52 52" fill="none" xmlns="http://www.w3.org/2000/svg">
<path d="M38.5682 40.6701C38.1095 41.5068 37.4048 42.1824 36.5496 42.6055L36.501 42.8367C36.3877 43.3662 36.3762 44.3836 37.5647 45.2391L38.1265 45.6461L37.3173 46.7698L36.7646 46.3652C35.2547 45.2761 35.0374 43.9419 35.0836 43.0933C34.5904 43.1858 34.0895 43.2315 33.5876 43.2298H32.8939V41.8424H33.5876C36.2282 41.8424 37.2386 40.5083 37.6248 39.5024C37.4985 38.2761 37.0581 37.103 36.346 36.0966C35.6339 35.0901 34.6743 34.2844 33.5599 33.7572C32.4455 33.2299 31.2139 32.9991 29.9842 33.0868C28.7544 33.1746 27.5681 33.5781 26.5399 34.2583V35.708C27.4648 35.4375 29.6129 35.0306 31.1366 36.4665L31.6407 36.9428L30.6904 37.9532L30.1863 37.4769C28.8753 36.2445 26.637 37.1347 26.6139 37.1439L26.5399 37.174V47.2762H25.1526V39.9325C24.6485 39.766 22.8403 39.262 21.7142 40.314L21.2102 40.788L20.246 39.7707L20.7524 39.3082C22.1721 37.9694 24.1305 38.2307 25.1456 38.492V34.1612C24.0939 33.4992 22.8882 33.1221 21.6468 33.0667C20.4053 33.0113 19.1708 33.2797 18.0644 33.8454C16.9579 34.4111 16.0175 35.2547 15.3355 36.2935C14.6535 37.3323 14.2532 38.5305 14.174 39.7707C15.0014 40.2042 15.7134 40.829 16.2507 41.5932C16.788 42.3573 17.1351 43.2386 17.2632 44.1639L17.3626 44.8576L15.9914 45.0564L15.892 44.3628C15.8239 43.851 15.6674 43.355 15.4296 42.8968C14.7128 43.2691 13.8226 43.9327 13.626 44.9778L13.4989 45.6599L12.1346 45.4033L12.2641 44.7096C12.4953 43.5234 13.3069 42.4829 14.5764 41.7592C14.1085 41.3132 13.5651 40.9539 12.9717 40.6979C11.7461 41.0178 10.6791 41.7734 9.9705 42.8233C9.26193 43.8733 8.96036 45.1455 9.12225 46.4018C9.28414 47.658 9.89839 48.8122 10.85 49.6482C11.8016 50.4842 13.0253 50.9447 14.292 50.9434C14.3706 50.9434 14.4469 50.9434 14.5232 50.9318H20.0101C19.9456 50.4123 19.7466 49.9187 19.4327 49.4998C19.1188 49.0808 18.7009 48.7511 18.2204 48.5433L17.573 48.3259L18.0678 47.0403L18.7291 47.2854C19.4716 47.5941 20.1147 48.1014 20.5879 48.7516C21.061 49.4018 21.3459 50.1697 21.4113 50.9712H29.488C29.5534 50.1697 29.8383 49.4018 30.3115 48.7516C30.7846 48.1014 31.4277 47.5941 32.1702 47.2854L32.8176 47.0403L33.3101 48.3375L32.665 48.5826C32.185 48.7907 31.7676 49.1206 31.4541 49.5395C31.1406 49.9584 30.9419 50.4519 30.8777 50.9712H37.4144H37.5323H37.6502H37.745C39.0159 50.9214 40.2246 50.4077 41.1425 49.5273C42.0605 48.6469 42.6241 47.4607 42.7269 46.193C42.8296 44.9252 42.4644 43.6638 41.7003 42.647C40.9362 41.6302 39.826 40.9286 38.5797 40.6747L38.5682 40.6701Z" fill="#BD192B"/>
<path d="M25.9387 8.82586C26.803 8.82497 27.6415 8.53081 28.3169 7.9915C28.9923 7.45218 29.4647 6.69963 29.6568 5.85694C29.7221 5.5796 29.7547 5.29558 29.7539 5.01066C29.7511 4.27093 29.5334 3.54795 29.1273 2.92964L29.999 1.90532L28.9423 1.00586L28.1608 1.93076C27.6726 1.58065 27.1086 1.35084 26.5148 1.26006C25.921 1.16928 25.3141 1.2201 24.7436 1.40837C24.1732 1.59664 23.6553 1.91703 23.2321 2.34344C22.809 2.76985 22.4926 3.29021 22.3087 3.86211C22.1249 4.434 22.0787 5.04125 22.1741 5.63436C22.2694 6.22747 22.5036 6.78966 22.8574 7.27511C23.2113 7.76056 23.6748 8.15553 24.2103 8.42783C24.7458 8.70013 25.338 8.84206 25.9387 8.84205V8.82586ZM25.9387 2.58281C26.4069 2.58286 26.8649 2.71947 27.2567 2.97589L25.8693 4.61296L24.8959 3.78749L23.9918 4.85574L25.4948 6.12747C25.6195 6.23306 25.7776 6.29121 25.941 6.29164C26.0416 6.29198 26.1411 6.27045 26.2325 6.22852C26.3239 6.1866 26.4052 6.1253 26.4705 6.04886L28.1654 4.05802C28.2987 4.36116 28.3672 4.68877 28.3666 5.01991C28.3666 5.50009 28.2242 5.9695 27.9574 6.36875C27.6906 6.76801 27.3114 7.0792 26.8678 7.26295C26.4242 7.44671 25.936 7.49479 25.4651 7.40111C24.9941 7.30743 24.5615 7.0762 24.222 6.73666C23.8824 6.39712 23.6512 5.96452 23.5575 5.49356C23.4638 5.0226 23.5119 4.53444 23.6957 4.09081C23.8794 3.64718 24.1906 3.268 24.5899 3.00122C24.9891 2.73445 25.4585 2.59206 25.9387 2.59206V2.58281Z" fill="#BD192B"/>
<path d="M50.9294 16.8238C50.7954 15.8805 50.3137 15.0214 49.5789 14.415C48.8441 13.8085 47.9092 13.4986 46.9577 13.546C46.0061 13.5934 45.1066 13.9946 44.4356 14.671C43.7647 15.3474 43.3707 16.2502 43.3311 17.2021C43.2914 18.154 43.6089 19.0863 44.2213 19.8162C44.8336 20.5461 45.6966 21.0208 46.6409 21.1472C47.5853 21.2735 48.5427 21.0424 49.3254 20.4993C50.1081 19.9561 50.6596 19.14 50.8716 18.2111C50.9369 17.9338 50.9695 17.6498 50.9687 17.3649C50.9686 17.1838 50.9554 17.003 50.9294 16.8238ZM48.1131 15.1359L47.1443 16.218L46.1824 15.1428C46.4882 15.0072 46.819 14.9371 47.1535 14.937C47.4836 14.9372 47.8101 15.0049 48.1131 15.1359ZM45.1234 16.0376L46.2148 17.2608L45.0471 18.5672C44.8242 18.1799 44.7133 17.7383 44.7268 17.2916C44.7402 16.8449 44.8776 16.4108 45.1234 16.0376ZM46.0483 19.5268L47.142 18.3013L48.2426 19.5314C47.9028 19.7046 47.5268 19.7949 47.1454 19.7949C46.7641 19.7949 46.3881 19.7046 46.0483 19.5314V19.5268ZM49.2507 18.5788L48.0715 17.2608L49.1744 16.0261C49.4227 16.4009 49.5615 16.8375 49.5749 17.2869C49.5884 17.7363 49.4761 18.1805 49.2507 18.5695V18.5788Z" fill="#BD192B"/>
<path d="M4.85571 13.5613C4.13658 13.5575 3.431 13.7569 2.82032 14.1367C2.20964 14.5165 1.71873 15.0611 1.40421 15.7079C1.08968 16.3546 0.964342 17.077 1.04264 17.7919C1.12094 18.5067 1.3997 19.1849 1.84676 19.7482C2.29382 20.3115 2.89098 20.737 3.56939 20.9756C4.24781 21.2142 4.97984 21.2562 5.68108 21.0967C6.38232 20.9373 7.02422 20.5829 7.53276 20.0744C8.0413 19.5659 8.39577 18.924 8.5553 18.2228C8.62056 17.9455 8.65315 17.6614 8.65242 17.3765C8.65121 16.3682 8.2514 15.4013 7.54017 14.6866C6.82894 13.9719 5.86398 13.5674 4.85571 13.5613ZM5.81298 15.1475L4.85571 16.2181L3.89845 15.1475C4.20053 15.0163 4.52636 14.9486 4.85571 14.9486C5.18507 14.9486 5.5109 15.0163 5.81298 15.1475ZM2.82325 16.0377L3.91694 17.2609L2.74001 18.5766C2.51512 18.1871 2.40372 17.7425 2.41843 17.293C2.43315 16.8435 2.57337 16.4071 2.82325 16.0331V16.0377ZM3.74815 19.5362L4.85571 18.3014L5.96097 19.5362C5.61961 19.7124 5.24103 19.8043 4.85687 19.8043C4.47271 19.8043 4.09414 19.7124 3.75278 19.5362H3.74815ZM6.95985 18.5789L5.78061 17.2609L6.8743 16.0377C7.12327 16.412 7.26314 16.8481 7.27825 17.2973C7.29336 17.7465 7.18311 18.1911 6.95985 18.5812V18.5789Z" fill="#BD192B"/>
<path d="M29.9135 30.3574L31.4234 27.7585L30.2233 27.0625L28.7158 29.6615L29.9135 30.3574Z" fill="#BD192B"/>
<path d="M34.6734 19.2516L33.1716 21.8647L34.3786 22.5584L35.8804 19.9453L34.6734 19.2516Z" fill="#BD192B"/>
<path d="M36.9358 18.2668C36.987 18.1798 37.06 18.1077 37.1476 18.0574C37.2351 18.0071 37.3342 17.9805 37.4352 17.9801H38.1289V18.6229C38.1313 18.7557 38.1719 18.885 38.2457 18.9954C38.3195 19.1058 38.4234 19.1928 38.5452 19.2459C38.6669 19.2989 38.8014 19.316 38.9325 19.2949C39.0637 19.2738 39.186 19.2155 39.285 19.1269L40.7325 17.7673C40.8005 17.7031 40.8548 17.6257 40.8922 17.5398C40.9296 17.454 40.9491 17.3615 40.9498 17.2679C40.9523 17.1743 40.9351 17.0813 40.8992 16.9948C40.8634 16.9084 40.8097 16.8304 40.7417 16.7661L39.3081 15.3418C39.2103 15.2468 39.0868 15.1828 38.9528 15.1577C38.8189 15.1325 38.6805 15.1474 38.5549 15.2004C38.4294 15.2534 38.3222 15.3423 38.2469 15.4558C38.1715 15.5694 38.1313 15.7026 38.1312 15.8389V16.5858H36.7115C36.5896 16.5857 36.4699 16.6177 36.3644 16.6786C36.2588 16.7395 36.1712 16.8271 36.1103 16.9326L35.3311 18.2668L36.5334 18.9604L36.9358 18.2668Z" fill="#BD192B"/>
<path d="M32.4917 23.0523L30.9875 25.6694L32.1945 26.3631L33.6987 23.746L32.4917 23.0523Z" fill="#BD192B"/>
<path d="M26.6532 15.0759H25.2659V30.6234H26.6532V15.0759Z" fill="#BD192B"/>
<path d="M27.9781 13.2354C28.0315 13.1112 28.0475 12.9742 28.0241 12.8411C28.0007 12.708 27.9389 12.5847 27.8463 12.4862L26.4844 11.0387C26.4216 10.9685 26.3451 10.9117 26.2597 10.8719C26.1742 10.8322 26.0815 10.8103 25.9873 10.8075C25.8935 10.8055 25.8002 10.823 25.7135 10.8588C25.6267 10.8946 25.5483 10.948 25.4832 11.0156L24.0751 12.4862C23.9795 12.5837 23.9148 12.7073 23.8891 12.8414C23.8635 12.9755 23.878 13.1143 23.9308 13.2402C23.9836 13.3661 24.0725 13.4736 24.1862 13.5493C24.2998 13.6249 24.4333 13.6653 24.5699 13.6655H27.3446C27.4807 13.6639 27.6134 13.6222 27.7261 13.5458C27.8387 13.4693 27.9264 13.3613 27.9781 13.2354Z" fill="#BD192B"/>
<path d="M16.8844 19.5895L15.6774 20.2832L17.1792 22.8963L18.3862 22.2027L16.8844 19.5895Z" fill="#BD192B"/>
<path d="M21.5501 30.3574L22.7479 29.6615L21.2403 27.0625L20.0402 27.7585L21.5501 30.3574Z" fill="#BD192B"/>
<path d="M19.0936 23.4103L17.8867 24.104L19.3908 26.7212L20.5978 26.0275L19.0936 23.4103Z" fill="#BD192B"/>
<path d="M12.174 19.1201C12.2725 19.2131 12.3961 19.2752 12.5295 19.2988C12.6629 19.3224 12.8003 19.3064 12.9248 19.2528C13.0492 19.1992 13.1552 19.1103 13.2297 18.9972C13.3042 18.884 13.3439 18.7515 13.344 18.616V17.9732H14.0376C14.1377 17.9759 14.2353 18.0044 14.3212 18.0558C14.4071 18.1072 14.4782 18.1799 14.5278 18.2668L14.9325 18.9605L16.1325 18.2668L15.3625 16.9373C15.3016 16.8318 15.214 16.7442 15.1085 16.6833C15.0029 16.6224 14.8832 16.5904 14.7614 16.5905H13.344V15.839C13.3443 15.7022 13.3042 15.5684 13.2287 15.4544C13.1533 15.3403 13.0458 15.2512 12.9198 15.198C12.7937 15.1449 12.6548 15.1302 12.5205 15.1558C12.3862 15.1814 12.2624 15.2461 12.1647 15.3418L10.7173 16.7593C10.6493 16.8236 10.5956 16.9015 10.5597 16.9879C10.5239 17.0744 10.5066 17.1674 10.5092 17.261C10.5098 17.3546 10.5294 17.4471 10.5668 17.533C10.6041 17.6188 10.6584 17.6962 10.7265 17.7605L12.174 19.1201Z" fill="#BD192B"/>
</svg>
