<svg width="18" height="16" viewBox="0 0 18 16" fill="none" xmlns="http://www.w3.org/2000/svg">
<path d="M17.6667 7.80005C17.6614 6.83349 17.0284 5.99559 16.1334 5.77005L14.28 1.23405C14.1778 0.972669 13.9359 0.801449 13.6667 0.800049H4.33337C4.08324 0.804809 3.85671 0.956149 3.74671 1.19205L1.86671 5.75605C0.966708 5.98285 0.332575 6.82831 0.333375 7.80005V12.7H1.66671V14.1C1.66671 14.8733 2.26364 15.5 3.00004 15.5C3.73644 15.5 4.33337 14.8733 4.33337 14.1V12.7H13.6667V14.1C13.6667 14.8733 14.2636 15.5 15 15.5C15.7364 15.5 16.3334 14.8733 16.3334 14.1V12.7H17.6667V7.80005ZM4.73337 2.20005H13.2667L14.6667 5.70005H3.33337L4.73337 2.20005ZM3.00004 10.6C2.26364 10.6 1.66671 9.97327 1.66671 9.20005C1.66671 8.42683 2.26364 7.80005 3.00004 7.80005C3.73644 7.80005 4.33337 8.42683 4.33337 9.20005C4.33337 9.97327 3.73644 10.6 3.00004 10.6ZM15 10.6C14.2636 10.6 13.6667 9.97327 13.6667 9.20005C13.6667 8.42683 14.2636 7.80005 15 7.80005C15.7364 7.80005 16.3334 8.42683 16.3334 9.20005C16.3334 9.97327 15.7364 10.6 15 10.6Z" fill="#BD192B"/>
</svg>
