<svg width="19" height="19" viewBox="0 0 19 19" fill="none" xmlns="http://www.w3.org/2000/svg">
<g clip-path="url(#clip0_270_2)">
<path d="M18.3038 12.4493C17.9756 11.6171 17.6613 10.669 17.6479 9.55842C17.6474 9.52897 17.6457 9.51852 17.6457 9.51852C17.6495 8.93807 17.784 8.61792 17.953 8.19612C18.1235 7.77955 18.3258 7.26417 18.3231 6.51557C18.3231 6.33175 18.3118 6.13273 18.2871 5.9166C18.3479 5.91375 18.4092 5.91042 18.47 5.9071C18.3791 4.50442 17.8938 3.15305 17.0722 1.9703C16.8597 2.08525 16.6482 2.2002 16.4362 2.31515C16.1322 1.8791 15.7798 1.46727 15.3795 1.08775C15.1062 1.31242 14.8328 1.5352 14.5601 1.75987C14.9092 2.0919 15.2175 2.45052 15.4817 2.83242C15.6808 3.11837 15.854 3.4162 16.0036 3.72305C16.3496 4.44125 16.5562 5.21122 16.6079 6.0021C16.8085 5.99212 17.0103 5.9812 17.211 5.9717C17.2352 6.17452 17.247 6.35597 17.247 6.51557C17.2433 7.125 17.1077 7.45702 16.9398 7.87597C16.7709 8.28875 16.5675 8.79225 16.5696 9.51852C16.5707 9.54892 16.5713 9.56745 16.5713 9.57505C16.5853 10.8333 16.9463 11.8973 17.2869 12.7613C17.6344 13.622 17.9352 14.3075 17.9234 14.7013C17.9105 14.9535 17.8674 15.0613 17.6328 15.2418C17.4155 15.3933 17.2557 15.4323 17.1308 15.4328C16.8903 15.4484 16.483 15.2133 16.1398 14.5497C15.8019 13.9028 15.571 12.9243 15.5727 11.7672C15.5727 11.5363 15.5823 11.2974 15.6017 11.0523C15.6598 10.2714 15.6862 9.595 15.6878 9.00552C15.6797 7.14685 15.4365 6.15552 14.9695 5.53185C14.6391 5.07965 14.1581 4.91863 13.7729 4.86685V1.9C13.7729 0.850725 12.8098 0 11.6207 0H3.87393C2.68485 0 1.72175 0.850725 1.72175 1.9V17.1H0V19H15.4957V17.1H13.774V5.83395C13.8757 5.8653 13.9628 5.928 14.0801 6.0648C14.3308 6.37355 14.6187 7.2257 14.6112 9.00505C14.6122 9.56792 14.5853 10.2244 14.5283 10.9877C14.5079 11.2527 14.4976 11.5135 14.4976 11.7667C14.4987 13.034 14.7381 14.1265 15.1605 14.9444C15.5759 15.7443 16.2178 16.3671 17.1308 16.3832C17.5467 16.3832 17.9513 16.2336 18.3065 15.9814C18.7853 15.656 19.0124 15.161 18.9995 14.7008C18.9876 13.9811 18.6261 13.2862 18.3038 12.4493ZM12.0522 7.22H3.44349V3.42H12.0522V7.22Z" fill="#BD192B"/>
</g>
<defs>
<clipPath id="clip0_270_2">
<rect width="19" height="19" fill="white"/>
</clipPath>
</defs>
</svg>
