<svg width="52" height="52" viewBox="0 0 52 52" fill="none" xmlns="http://www.w3.org/2000/svg">
<g clip-path="url(#clip0_137_63)">
<path fill-rule="evenodd" clip-rule="evenodd" d="M40.5234 34.125C39.8125 34.125 39 33.8203 38.3906 33.2109C38.0859 32.9062 38.0859 32.5 38.3906 32.1953C38.6953 31.8906 39.1016 31.8906 39.4062 32.1953C40.0156 32.8046 41.1328 32.8046 41.7422 32.1953C42.25 31.5859 42.25 30.5703 41.7422 29.9609C41.3359 29.5546 40.7266 28.9453 40.0156 28.2343C38.7969 26.914 37.1719 25.289 36.5625 24.8828C34.9375 24.0703 33.4141 23.2578 31.8906 22.4453C30.3672 21.6328 28.7422 20.8203 27.2188 20.0078C26.8125 19.8046 26.6094 19.9062 26.5078 19.9062C25.7969 20.1093 25.1875 21.3281 24.8828 21.9375C24.4766 22.8515 23.6641 23.4609 22.6484 23.4609C21.5312 23.5625 20.3125 23.0546 19.7031 22.1406C19.0938 21.2265 19.0938 20.2109 19.7031 19.1953C21.3281 16.1484 24.5781 11.375 28.0312 13C30.5703 14.1171 34.6328 15.9453 35.2422 16.1484C35.5469 16.0468 36.1562 15.7421 37.7812 14.8281L37.9844 14.7265C38.3906 14.5234 38.7969 14.625 39 14.9296C39.2031 15.3359 39.1016 15.7421 38.6953 15.9453L38.4922 16.0468C35.9531 17.5703 35.3438 17.7734 34.8359 17.4687C33.9219 17.164 29.4531 15.1328 27.4219 14.2187C24.8828 13.1015 21.8359 18.1796 20.9219 19.8046C20.6172 20.414 20.6172 20.9218 20.9219 21.3281C21.2266 21.8359 21.8359 22.1406 22.5469 22.039C22.8516 22.039 23.3594 21.9375 23.5625 21.3281H23.6641C24.1719 20.1093 24.8828 18.8906 26.1016 18.4843C26.6094 18.3828 27.2188 18.3828 27.8281 18.789C29.4531 19.6015 30.9766 20.414 32.5 21.2265C34.0234 22.039 35.6484 22.8515 37.1719 23.664C37.9844 24.0703 39.2031 25.3906 41.0312 27.2187C41.6406 27.9296 42.3516 28.539 42.6562 28.9453C42.7578 28.9453 42.7578 28.9453 42.7578 28.9453C43.7734 30.164 43.7734 31.9921 42.7578 33.2109C42.1484 33.8203 41.3359 34.125 40.5234 34.125Z" fill="#BD192B"/>
<path fill-rule="evenodd" clip-rule="evenodd" d="M16.3516 18.7889C16.25 18.7889 16.1484 18.7889 16.0469 18.6874L13.3047 17.2655C12.8984 17.1639 12.7969 16.6561 13 16.3514C13.2031 16.0467 13.6094 15.8436 13.9141 16.0467L16.0469 17.1639C17.0625 15.1327 18.3828 14.0155 19.9062 13.6092C22.1406 13.1014 23.8672 14.4217 23.9688 14.5233C24.2734 14.7264 24.375 15.1327 24.1719 15.4374C23.8672 15.7421 23.4609 15.8436 23.1562 15.6405C23.1562 15.5389 21.7344 14.6249 20.2109 15.0311C18.9922 15.3358 17.875 16.453 16.9609 18.3827C16.9609 18.5858 16.7578 18.6874 16.5547 18.7889C16.4531 18.7889 16.4531 18.7889 16.3516 18.7889Z" fill="#BD192B"/>
<path fill-rule="evenodd" clip-rule="evenodd" d="M41.0312 28.9453C40.7266 28.9453 40.5234 28.8438 40.4219 28.6406C40.2188 28.2344 40.3203 27.8281 40.7266 27.625L44.3828 25.5938C44.6875 25.3906 45.0938 25.4922 45.2969 25.8984C45.5 26.2031 45.3984 26.6094 44.9922 26.8125L41.3359 28.8438C41.2344 28.9453 41.1328 28.9453 41.0312 28.9453Z" fill="#BD192B"/>
<path fill-rule="evenodd" clip-rule="evenodd" d="M19.9062 41.0312C19.1953 41.0312 18.5859 40.8281 18.0781 40.3203C17.5703 39.8125 17.3672 39.2031 17.3672 38.5938C17.3672 37.8828 17.5703 37.2734 18.0781 36.7656C18.3828 36.5625 18.7891 36.5625 19.0938 36.7656C19.3984 37.0703 19.3984 37.5781 19.0938 37.7812C18.8906 37.9844 18.7891 38.2891 18.7891 38.5938C18.7891 38.8984 18.8906 39.1016 19.0938 39.3047C19.2969 39.5078 19.6016 39.7109 19.9062 39.7109C20.2109 39.7109 20.5156 39.5078 20.7188 39.3047L23.1562 36.8672C23.3594 36.6641 23.4609 36.4609 23.4609 36.1562C23.4609 35.8516 23.3594 35.5469 23.1562 35.3438C22.9531 35.1406 22.6484 35.0391 22.3438 35.0391C22.0391 35.0391 21.7344 35.1406 21.5312 35.3438C21.2266 35.6484 20.8203 35.6484 20.5156 35.3438C20.2109 35.1406 20.2109 34.6328 20.5156 34.3281C21.0234 33.9219 21.6328 33.6172 22.3438 33.6172C23.0547 33.6172 23.6641 33.9219 24.1719 34.3281C24.6797 34.8359 24.8828 35.4453 24.8828 36.1562C24.8828 36.7656 24.6797 37.375 24.1719 37.8828L21.7344 40.3203C21.2266 40.8281 20.6172 41.0312 19.9062 41.0312Z" fill="#BD192B"/>
<path fill-rule="evenodd" clip-rule="evenodd" d="M17.2656 38.4922C16.6562 38.4922 16.0469 38.2891 15.5391 37.7812C15.0312 37.2734 14.8281 36.6641 14.8281 35.9531C14.8281 35.2422 15.0312 34.6328 15.5391 34.125L19.1953 30.5703C20.2109 29.6562 21.7344 29.6562 22.75 30.5703C23.7656 31.5859 23.7656 33.1094 22.75 34.125L19.0938 37.7812C18.5859 38.2891 17.9766 38.4922 17.2656 38.4922ZM20.9219 31.2812C20.7188 31.2812 20.4141 31.3828 20.2109 31.5859L16.5547 35.1406C16.1484 35.5469 16.1484 36.3594 16.5547 36.7656C16.9609 37.1719 17.6719 37.1719 18.0781 36.7656L21.7344 33.1094C22.1406 32.7031 22.1406 31.9922 21.7344 31.5859C21.5312 31.3828 21.2266 31.2812 20.9219 31.2812Z" fill="#BD192B"/>
<path fill-rule="evenodd" clip-rule="evenodd" d="M14.7266 35.8516C14.1172 35.8516 13.5079 35.6484 13.0001 35.1406C12.5938 34.7344 12.2891 34.125 12.2891 33.5156C12.1876 32.8047 12.4922 32.0938 13.0001 31.5859L16.0469 28.5391C16.5547 28.1328 17.1641 27.8281 17.7735 27.8281C18.4844 27.8281 19.0938 28.1328 19.6016 28.5391C20.0079 29.0469 20.3126 29.6562 20.3126 30.3672C20.3126 30.9766 20.1094 31.5859 19.6016 32.0938C19.2969 32.3984 18.8907 32.3984 18.586 32.0938C18.2813 31.7891 18.2813 31.3828 18.586 31.0781C18.7891 30.875 18.8907 30.5703 18.8907 30.3672C18.8907 30.0625 18.7891 29.7578 18.586 29.5547C18.3829 29.3516 18.0782 29.25 17.7735 29.25C17.4688 29.25 17.2657 29.3516 17.0626 29.5547L14.0157 32.6016C13.8126 32.8047 13.6094 33.1094 13.6094 33.4141C13.711 33.7188 13.8126 33.9219 13.9141 34.125H14.0157C14.2188 34.3281 14.4219 34.4297 14.7266 34.4297C15.0313 34.4297 15.336 34.3281 15.5391 34.125C15.8438 33.8203 16.2501 33.8203 16.5547 34.125C16.8594 34.4297 16.8594 34.8359 16.5547 35.1406C16.0469 35.6484 15.4376 35.8516 14.7266 35.8516Z" fill="#BD192B"/>
<path fill-rule="evenodd" clip-rule="evenodd" d="M12.1875 33.3125C11.4766 33.3125 10.8672 33.1094 10.3594 32.6016C9.34375 31.5859 9.34375 30.0625 10.3594 29.0469L11.375 28.0312C12.3906 27.0156 13.9141 27.0156 14.9297 28.0312C15.9453 29.0469 15.9453 30.6719 14.9297 31.6875C14.7266 31.8906 14.4219 31.9922 14.2188 31.8906C14.3203 32.0938 14.2188 32.3984 14.0156 32.6016C13.5078 33.1094 12.7969 33.3125 12.1875 33.3125ZM13.2031 28.7422C12.8984 28.7422 12.5938 28.8438 12.3906 29.0469L11.375 30.0625C10.9688 30.4688 10.9688 31.1797 11.375 31.5859C11.7812 32.0938 12.5938 32.0938 13 31.5859C13.2031 31.3828 13.5078 31.3828 13.7109 31.4844C13.6094 31.1797 13.7109 30.875 13.9141 30.6719C14.3203 30.2656 14.3203 29.4531 13.9141 29.0469C13.7109 28.8438 13.4062 28.7422 13.2031 28.7422Z" fill="#BD192B"/>
<path fill-rule="evenodd" clip-rule="evenodd" d="M10.8672 30.3672C10.7656 30.3672 10.6641 30.3672 10.5625 30.2656L7.00781 28.2344C6.60156 28.0312 6.5 27.625 6.70312 27.3203C6.90625 26.9141 7.3125 26.8125 7.71875 27.0156L11.2734 29.0469C11.5781 29.25 11.6797 29.6562 11.4766 30.0625C11.375 30.2656 11.0703 30.3672 10.8672 30.3672Z" fill="#BD192B"/>
<path fill-rule="evenodd" clip-rule="evenodd" d="M28.7422 42.1484C27.9297 42.1484 27.2188 41.8438 26.6094 41.2344L23.5625 38.2891C23.2578 37.9844 23.2578 37.5781 23.5625 37.2734C23.8672 36.9688 24.2734 36.9688 24.5781 37.2734L27.625 40.2188C28.2344 40.8281 29.25 40.8281 29.8594 40.2188C30.4688 39.6094 30.4688 38.5938 29.8594 37.9844C29.5547 37.6797 29.5547 37.2734 29.8594 36.9688C30.1641 36.6641 30.5703 36.6641 30.875 36.9688C32.0938 38.1875 32.0938 40.0156 30.875 41.2344C30.2656 41.8438 29.4531 42.1484 28.7422 42.1484Z" fill="#BD192B"/>
<path fill-rule="evenodd" clip-rule="evenodd" d="M34.0234 40.9297C33.2109 40.9297 32.5 40.625 31.8906 40.0156L26.9141 34.9375C26.6094 34.6328 26.6094 34.2266 26.9141 33.9219C27.2188 33.7188 27.625 33.7188 27.9297 33.9219L32.9062 39C33.5156 39.7109 34.6328 39.7109 35.2422 39C35.8516 38.3906 35.8516 37.375 35.2422 36.6641C34.9375 36.4609 34.9375 35.9531 35.2422 35.6484C35.5469 35.4453 35.9531 35.4453 36.2578 35.6484C36.8672 36.2578 37.1719 37.0703 37.1719 37.8828C37.1719 38.6953 36.8672 39.5078 36.2578 40.0156C35.6484 40.625 34.9375 40.9297 34.0234 40.9297Z" fill="#BD192B"/>
<path fill-rule="evenodd" clip-rule="evenodd" d="M38.2891 38.5938C37.5781 38.5938 36.7656 38.2891 36.1562 37.6797L30.1641 31.6875C29.8594 31.3828 29.8594 30.9766 30.1641 30.6719C30.4688 30.3672 30.875 30.3672 31.1797 30.6719L37.1719 36.6641C37.7812 37.2734 38.8984 37.2734 39.5078 36.6641C40.1172 36.0547 40.1172 34.9375 39.5078 34.3281L33.5156 28.3359C33.2109 28.0312 33.2109 27.625 33.5156 27.3203C33.8203 27.0156 34.2266 27.0156 34.5312 27.3203L40.5234 33.3125C41.7422 34.5312 41.7422 36.4609 40.5234 37.6797C39.9141 38.2891 39.1016 38.5938 38.2891 38.5938Z" fill="#BD192B"/>
<path fill-rule="evenodd" clip-rule="evenodd" d="M46.1094 28.4375C45.3984 28.4375 44.7891 28.0312 44.4844 27.3203L37.375 15.0312C37.0703 14.625 36.9688 14.1172 37.0703 13.6093C37.1719 13.1015 37.5781 12.5937 38.0859 12.3906L41.9453 10.1562C42.4531 9.85153 42.9609 9.74996 43.4688 9.95309C43.9766 10.0547 44.3828 10.3593 44.5859 10.8672L51.6953 23.1562C52 23.664 52.1016 24.1718 51.8984 24.6797C51.7969 25.1875 51.4922 25.5937 50.9844 25.7968L47.125 28.1328C47.0234 28.1328 47.0234 28.1328 47.0234 28.1328C46.7188 28.3359 46.4141 28.4375 46.1094 28.4375ZM42.9609 11.2734C42.9609 11.2734 42.8594 11.2734 42.7578 11.375C42.7578 11.375 42.7578 11.375 42.6562 11.375L38.6953 13.6093C38.5938 13.7109 38.4922 13.8125 38.4922 13.914C38.4922 14.0156 38.4922 14.1172 38.5938 14.2187C38.5938 14.2187 38.5938 14.2187 38.5938 14.3203L45.7031 26.7109C45.9062 27.0156 46.2109 27.0156 46.4141 26.914L50.375 24.5781C50.4766 24.4765 50.5781 24.4765 50.5781 24.375C50.5781 24.2734 50.5781 24.0703 50.4766 23.9687L43.3672 11.5781C43.3672 11.5781 43.3672 11.5781 43.3672 11.4765C43.2656 11.375 43.2656 11.375 43.1641 11.2734C43.0625 11.2734 43.0625 11.2734 42.9609 11.2734Z" fill="#BD192B"/>
<path fill-rule="evenodd" clip-rule="evenodd" d="M5.89062 29.7578C5.58594 29.7578 5.28125 29.6563 4.97656 29.4531H4.875L1.01562 27.1172C0.507812 26.9141 0.101562 26.5078 0 25.8984C-0.101562 25.4922 0 24.9844 0.304688 24.5781L7.41406 12.1875C7.92188 11.2734 9.03906 10.9688 9.95312 11.4766C9.95312 11.4766 9.95312 11.4766 10.0547 11.4766L13.9141 13.8125C14.4219 14.0156 14.8281 14.5234 14.9297 15.0313C15.0312 15.4375 14.9297 15.9453 14.625 16.3516L7.51562 28.8438C7.21094 29.3516 6.5 29.7578 5.89062 29.7578ZM5.58594 28.2344C5.89062 28.3359 6.19531 28.2344 6.29688 28.1328L13.4062 15.6406C13.4062 15.5391 13.4062 15.5391 13.5078 15.5391C13.5078 15.4375 13.5078 15.4375 13.5078 15.3359C13.5078 15.2344 13.4062 15.1328 13.3047 15.0313H13.2031L9.34375 12.6953C9.03906 12.5938 8.73438 12.6953 8.63281 12.8984L1.52344 25.3906C1.52344 25.3906 1.52344 25.3906 1.42188 25.4922V25.5938C1.42188 25.6953 1.52344 25.7969 1.625 25.8984H1.72656L5.58594 28.2344Z" fill="#BD192B"/>
</g>
<defs>
<clipPath id="clip0_137_63">
<rect width="52" height="52" fill="white"/>
</clipPath>
</defs>
</svg>
