<svg width="25" height="25" viewBox="0 0 25 25" fill="none" xmlns="http://www.w3.org/2000/svg">
<path fill-rule="evenodd" clip-rule="evenodd" d="M12.5 18.75C15.9518 18.75 18.75 15.9518 18.75 12.5C18.75 9.04822 15.9518 6.25 12.5 6.25C9.04822 6.25 6.25 9.04822 6.25 12.5C6.25 15.9518 9.04822 18.75 12.5 18.75ZM12.5 16.6667C14.8011 16.6667 16.6667 14.8011 16.6667 12.5C16.6667 10.1988 14.8011 8.33333 12.5 8.33333C10.1988 8.33333 8.33333 10.1988 8.33333 12.5C8.33333 14.8011 10.1988 16.6667 12.5 16.6667Z" fill="#BD192B"/>
<path d="M18.75 5.20825C18.1747 5.20825 17.7084 5.67463 17.7084 6.24992C17.7084 6.82521 18.1747 7.29159 18.75 7.29159C19.3254 7.29159 19.7917 6.82521 19.7917 6.24992C19.7917 5.67463 19.3254 5.20825 18.75 5.20825Z" fill="#BD192B"/>
<path fill-rule="evenodd" clip-rule="evenodd" d="M1.72283 4.45431C1.04163 5.79126 1.04163 7.54143 1.04163 11.0417V13.9584C1.04163 17.4587 1.04163 19.2089 1.72283 20.5458C2.32204 21.7219 3.27817 22.678 4.45419 23.2772C5.79114 23.9584 7.5413 23.9584 11.0416 23.9584H13.9583C17.4586 23.9584 19.2088 23.9584 20.5457 23.2772C21.7217 22.678 22.6779 21.7219 23.277 20.5458C23.9583 19.2089 23.9583 17.4587 23.9583 13.9584V11.0417C23.9583 7.54143 23.9583 5.79126 23.277 4.45431C22.6779 3.27829 21.7217 2.32216 20.5457 1.72296C19.2088 1.04175 17.4586 1.04175 13.9583 1.04175H11.0416C7.5413 1.04175 5.79114 1.04175 4.45419 1.72296C3.27817 2.32216 2.32204 3.27829 1.72283 4.45431ZM13.9583 3.12508H11.0416C9.25708 3.12508 8.04397 3.12671 7.10629 3.20331C6.19292 3.27794 5.72583 3.4132 5.4 3.57922C4.61599 3.9787 3.97857 4.61611 3.57909 5.40012C3.41307 5.72596 3.27781 6.19304 3.20319 7.10641C3.12658 8.04409 3.12496 9.25721 3.12496 11.0417V13.9584C3.12496 15.743 3.12658 16.956 3.20319 17.8937C3.27781 18.8072 3.41307 19.2742 3.57909 19.6001C3.97857 20.384 4.61599 21.0214 5.4 21.4209C5.72583 21.587 6.19292 21.7223 7.10629 21.7969C8.04397 21.8734 9.25708 21.8751 11.0416 21.8751H13.9583C15.7429 21.8751 16.9559 21.8734 17.8936 21.7969C18.807 21.7223 19.2741 21.587 19.6 21.4209C20.3839 21.0214 21.0213 20.384 21.4208 19.6001C21.5868 19.2742 21.7221 18.8072 21.7967 17.8937C21.8733 16.956 21.875 15.743 21.875 13.9584V11.0417C21.875 9.25721 21.8733 8.04409 21.7967 7.10641C21.7221 6.19304 21.5868 5.72596 21.4208 5.40012C21.0213 4.61611 20.3839 3.9787 19.6 3.57922C19.2741 3.4132 18.807 3.27794 17.8936 3.20331C16.9559 3.12671 15.7429 3.12508 13.9583 3.12508Z" fill="#BD192B"/>
</svg>
