<svg width="13" height="20" viewBox="0 0 13 20" fill="none" xmlns="http://www.w3.org/2000/svg">
<g clip-path="url(#clip0_138_127)">
<path fill-rule="evenodd" clip-rule="evenodd" d="M6.85458 8.77778C4.17185 8.12222 3.30912 7.44444 3.30912 6.38889C3.30912 5.17778 4.50276 4.33333 6.50003 4.33333C8.17822 4.33333 9.01731 4.93333 9.32458 5.88889C9.4664 6.33333 9.8564 6.66667 10.3528 6.66667H10.7073C11.4873 6.66667 12.0428 5.94444 11.7709 5.25556C11.2746 3.94444 10.1164 2.85556 8.27276 2.43333V1.66667C8.27276 0.744444 7.48094 0 6.50003 0C5.51912 0 4.72731 0.744444 4.72731 1.66667V2.4C2.43458 2.86667 0.590942 4.26667 0.590942 6.41111C0.590942 8.97778 2.84822 10.2556 6.14549 11C9.10003 11.6667 9.69094 12.6444 9.69094 13.6778C9.69094 14.4444 9.11185 15.6667 6.50003 15.6667C4.55003 15.6667 3.54549 15.0111 3.15549 14.0778C2.97822 13.6444 2.5764 13.3333 2.09185 13.3333H1.76094C0.969124 13.3333 0.41367 14.0889 0.709124 14.7778C1.38276 16.3222 2.95458 17.2333 4.72731 17.5889V18.3333C4.72731 19.2556 5.51912 20 6.50003 20C7.48094 20 8.27276 19.2556 8.27276 18.3333V17.6111C10.5773 17.2 12.4091 15.9444 12.4091 13.6667C12.4091 10.5111 9.53731 9.43333 6.85458 8.77778Z" fill="#BD192B"/>
</g>
<defs>
<clipPath id="clip0_138_127">
<rect width="13" height="20" fill="white"/>
</clipPath>
</defs>
</svg>
