<svg width="23" height="20" viewBox="0 0 23 20" fill="none" xmlns="http://www.w3.org/2000/svg">
<g clip-path="url(#clip0_270_5)">
<path d="M15.7981 19.1561C15.7981 19.6218 16.2017 19.9993 16.6997 19.9993C17.1976 19.9993 17.6014 19.6218 17.6014 19.1561V14.9855C16.9107 14.9776 16.3088 14.9162 15.7981 14.8304V19.1561Z" fill="#BD192B"/>
<path d="M17.902 19.1561C17.902 19.6219 18.3055 19.9993 18.8036 19.9993C19.3013 19.9993 19.7053 19.6219 19.7053 19.1561V14.8304C19.1946 14.9162 18.5926 14.9776 17.902 14.9855V19.1561Z" fill="#BD192B"/>
<path d="M19.2784 4.73585C19.5467 4.78049 20.3154 4.9836 21.1258 5.87958C21.1743 5.8095 21.2102 5.73011 21.2285 5.64315C21.3053 5.27761 21.0507 4.92298 20.6598 4.85113C19.9571 4.72195 19.2388 4.6214 18.5371 4.54309C18.4909 4.55958 18.4441 4.57488 18.3965 4.5885C18.8072 4.63281 19.1448 4.70487 19.2784 4.73585Z" fill="#BD192B"/>
<path d="M13.5414 14.0999L13.7247 13.257V12.0928C13.5669 12.2562 13.3397 12.3584 13.0905 12.3584C13.0529 12.3584 13.0148 12.3561 12.9773 12.3514C12.5093 12.2937 12.1786 11.8905 12.2402 11.4525C12.5518 9.24281 13.1146 7.75835 13.7247 6.76116V5.62434C13.9688 5.62591 14.2684 5.62993 14.611 5.63855C15.3319 4.94578 15.9826 4.77609 16.2249 4.73576C16.3585 4.70478 16.6961 4.63272 17.1069 4.58842C16.9269 4.53694 16.7566 4.46456 16.5993 4.37421C14.8173 4.25927 13.4046 4.27132 13.0608 4.27655C13.0498 4.27607 13.039 4.275 13.0279 4.275H9.54443C9.52285 4.275 9.50156 4.27622 9.48047 4.27802L7.25464 4.28598C7.40996 4.36912 7.57156 4.47706 7.73349 4.61931C8.02956 4.87948 8.28314 5.21742 8.49486 5.63073L8.8476 5.62946V6.51222C9.24162 7.78494 9.37184 9.52739 9.23431 11.7266C9.21683 12.0052 9.06851 12.2491 8.8476 12.4079V18.9574C8.8476 19.5334 9.34684 20 9.96232 20C10.578 20 11.0772 19.5334 11.0772 18.9574V11.3455H11.4951V18.9574C11.4951 19.5334 11.9944 20 12.6098 20C13.2255 20 13.7247 19.5334 13.7247 18.9574V14.2023C13.7154 14.1974 13.7083 14.1935 13.7055 14.1919L13.5414 14.0999Z" fill="#BD192B"/>
<path d="M11.286 3.79454C12.4065 3.79454 13.3147 2.94513 13.3147 1.89727C13.3147 0.849405 12.4065 0 11.286 0C10.1657 0 9.25732 0.849405 9.25732 1.89727C9.25732 2.94513 10.1657 3.79454 11.286 3.79454ZM12.5515 2.62515C12.2892 3.02243 11.8208 3.28862 11.286 3.28862C10.7512 3.28862 10.2828 3.02244 10.0206 2.62515H12.5515Z" fill="#BD192B"/>
<path d="M7.54817 4.80371C7.04343 4.36022 6.5502 4.28312 6.29583 4.27717C6.28078 4.27626 6.26581 4.27502 6.25054 4.27502H2.76707C2.75241 4.27502 2.73815 4.27624 2.72371 4.27707C2.46994 4.28256 1.97558 4.35879 1.46934 4.80371C0.306905 5.82514 -0.169537 8.14938 0.0533202 11.7119C0.0757709 12.0704 0.393634 12.3471 0.772691 12.3471C0.786864 12.3471 0.801219 12.3467 0.815482 12.3459C1.2132 12.3242 1.51671 12.005 1.49347 11.6331C1.30812 8.66998 1.66715 7.09057 2.07024 6.30661V9.09677V10.6938V18.9575C2.07024 19.5334 2.56949 20 3.18496 20C3.80061 20 4.29986 19.5334 4.29986 18.9575V11.3455H4.71775V18.9575C4.71775 19.5334 5.21699 20 5.83247 20C6.44811 20 6.94736 19.5334 6.94736 18.9575V10.6938V9.09677V6.30679C7.35041 7.09084 7.70939 8.67025 7.52404 11.6331C7.5008 12.005 7.80431 12.3242 8.20203 12.3459C8.21638 12.3467 8.23056 12.3471 8.24482 12.3471C8.62388 12.3471 8.94174 12.0704 8.96419 11.7119C9.18705 8.14942 8.71061 5.82518 7.54817 4.80371Z" fill="#BD192B"/>
<path d="M2.47998 1.89727C2.47998 2.94513 3.38832 3.79454 4.50866 3.79454C5.6292 3.79454 6.53734 2.94513 6.53734 1.89727C6.53734 0.849405 5.6292 0 4.50866 0C3.38832 0 2.47998 0.849405 2.47998 1.89727ZM5.77413 2.62515C5.51187 3.02243 5.04346 3.28862 4.50866 3.28862C3.97387 3.28862 3.50546 3.02244 3.2432 2.62515H5.77413Z" fill="#BD192B"/>
<path d="M19.2225 4.9835C19.068 4.94735 18.4148 4.80444 17.7517 4.80444C17.0885 4.80444 16.4353 4.94735 16.2808 4.9835C15.8158 5.05741 13.3211 5.72186 12.5084 11.4857C12.4661 11.7858 12.6919 12.0611 13.0128 12.1007C13.3336 12.1405 13.6281 11.9291 13.6705 11.6289C14.0433 8.98469 14.771 7.58943 15.3931 6.85709L13.8446 13.975C13.8446 13.975 15.1982 14.7339 17.7516 14.7339C20.3051 14.7339 21.6588 13.975 21.6588 13.975L20.1109 6.86023C20.7316 7.59438 21.4609 8.99094 21.8328 11.6289C21.8717 11.9048 22.1236 12.1055 22.4132 12.1055C22.4387 12.1054 22.4645 12.1039 22.4905 12.1007C22.8114 12.0611 23.0372 11.7858 22.9949 11.4857C22.1822 5.72186 19.6875 5.05741 19.2225 4.9835Z" fill="#BD192B"/>
<path d="M17.7516 4.42546C18.8222 4.42546 19.6901 3.61377 19.6901 2.61251C19.6901 1.61125 18.8222 0.799561 17.7516 0.799561C16.681 0.799561 15.8131 1.61125 15.8131 2.61251C15.8131 3.61377 16.681 4.42546 17.7516 4.42546ZM19.017 3.27156C18.7548 3.66884 18.2864 3.93504 17.7516 3.93504C17.2168 3.93504 16.7484 3.66885 16.4861 3.27156H19.017Z" fill="#BD192B"/>
</g>
<defs>
<clipPath id="clip0_270_5">
<rect width="23" height="20" fill="white"/>
</clipPath>
</defs>
</svg>
