<svg width="52" height="52" viewBox="0 0 52 52" fill="none" xmlns="http://www.w3.org/2000/svg">
<path d="M5.6875 50.375H26.8125C27.8895 50.3737 28.9221 49.9453 29.6837 49.1837C30.4453 48.4221 30.8737 47.3895 30.875 46.3125V42.25C30.875 42.0345 30.7894 41.8278 30.637 41.6755C30.4847 41.5231 30.278 41.4375 30.0625 41.4375C29.847 41.4375 29.6403 41.5231 29.488 41.6755C29.3356 41.8278 29.25 42.0345 29.25 42.25V46.3125C29.25 46.959 28.9932 47.579 28.5361 48.0361C28.079 48.4932 27.459 48.75 26.8125 48.75H5.6875C5.04103 48.75 4.42105 48.4932 3.96393 48.0361C3.50681 47.579 3.25 46.959 3.25 46.3125V5.6875C3.25 5.04103 3.50681 4.42105 3.96393 3.96393C4.42105 3.50681 5.04103 3.25 5.6875 3.25H26.8125C27.459 3.25 28.079 3.50681 28.5361 3.96393C28.9932 4.42105 29.25 5.04103 29.25 5.6875V9.75C29.25 9.96549 29.3356 10.1722 29.488 10.3245C29.6403 10.4769 29.847 10.5625 30.0625 10.5625C30.278 10.5625 30.4847 10.4769 30.637 10.3245C30.7894 10.1722 30.875 9.96549 30.875 9.75V5.6875C30.8737 4.61045 30.4453 3.57789 29.6837 2.8163C28.9221 2.05472 27.8895 1.62629 26.8125 1.625H5.6875C4.61045 1.62629 3.57789 2.05472 2.8163 2.8163C2.05472 3.57789 1.62629 4.61045 1.625 5.6875V46.3125C1.62629 47.3895 2.05472 48.4221 2.8163 49.1837C3.57789 49.9453 4.61045 50.3737 5.6875 50.375Z" fill="#BD192B"/>
<path d="M17.0625 5.6875C17.278 5.6875 17.4847 5.6019 17.637 5.44952C17.7894 5.29715 17.875 5.09049 17.875 4.875C17.875 4.65951 17.7894 4.45285 17.637 4.30048C17.4847 4.1481 17.278 4.0625 17.0625 4.0625H15.4375C15.222 4.0625 15.0153 4.1481 14.863 4.30048C14.7106 4.45285 14.625 4.65951 14.625 4.875C14.625 5.09049 14.7106 5.29715 14.863 5.44952C15.0153 5.6019 15.222 5.6875 15.4375 5.6875H17.0625Z" fill="#BD192B"/>
<path d="M15.4375 45.5C15.222 45.5 15.0153 45.5856 14.863 45.738C14.7106 45.8903 14.625 46.097 14.625 46.3125C14.625 46.528 14.7106 46.7347 14.863 46.887C15.0153 47.0394 15.222 47.125 15.4375 47.125H17.0625C17.278 47.125 17.4847 47.0394 17.637 46.887C17.7894 46.7347 17.875 46.528 17.875 46.3125C17.875 46.097 17.7894 45.8903 17.637 45.738C17.4847 45.5856 17.278 45.5 17.0625 45.5H15.4375Z" fill="#BD192B"/>
<path d="M6.5 45.5C6.28451 45.5 6.07785 45.5856 5.92548 45.738C5.7731 45.8903 5.6875 46.097 5.6875 46.3125C5.6875 46.528 5.7731 46.7347 5.92548 46.887C6.07785 47.0394 6.28451 47.125 6.5 47.125H8.125C8.34049 47.125 8.54715 47.0394 8.69952 46.887C8.8519 46.7347 8.9375 46.528 8.9375 46.3125C8.9375 46.097 8.8519 45.8903 8.69952 45.738C8.54715 45.5856 8.34049 45.5 8.125 45.5H6.5Z" fill="#BD192B"/>
<path d="M24.375 45.5C24.1595 45.5 23.9528 45.5856 23.8005 45.738C23.6481 45.8903 23.5625 46.097 23.5625 46.3125C23.5625 46.528 23.6481 46.7347 23.8005 46.887C23.9528 47.0394 24.1595 47.125 24.375 47.125H26C26.2155 47.125 26.4222 47.0394 26.5745 46.887C26.7269 46.7347 26.8125 46.528 26.8125 46.3125C26.8125 46.097 26.7269 45.8903 26.5745 45.738C26.4222 45.5856 26.2155 45.5 26 45.5H24.375Z" fill="#BD192B"/>
<path d="M27.625 43.0625V42.25C27.625 42.0345 27.5394 41.8278 27.387 41.6755C27.2347 41.5231 27.028 41.4375 26.8125 41.4375C26.597 41.4375 26.3903 41.5231 26.238 41.6755C26.0856 41.8278 26 42.0345 26 42.25H6.5V8.125H26V9.75C26 9.96549 26.0856 10.1722 26.238 10.3245C26.3903 10.4769 26.597 10.5625 26.8125 10.5625C27.028 10.5625 27.2347 10.4769 27.387 10.3245C27.5394 10.1722 27.625 9.96549 27.625 9.75V7.3125C27.625 7.09701 27.5394 6.89035 27.387 6.73798C27.2347 6.5856 27.028 6.5 26.8125 6.5H5.6875C5.47201 6.5 5.26535 6.5856 5.11298 6.73798C4.9606 6.89035 4.875 7.09701 4.875 7.3125V43.0625C4.875 43.278 4.9606 43.4847 5.11298 43.637C5.26535 43.7894 5.47201 43.875 5.6875 43.875H26.8125C27.028 43.875 27.2347 43.7894 27.387 43.637C27.5394 43.4847 27.625 43.278 27.625 43.0625Z" fill="#BD192B"/>
<path d="M50.2125 38.5124L47.775 35.2624C47.6993 35.1615 47.6012 35.0796 47.4884 35.0232C47.3755 34.9668 47.2511 34.9374 47.125 34.9374H46.0159C46.0189 34.8103 46.0121 34.6832 45.9956 34.5572L45.8624 33.7447C45.4082 30.0827 44.3999 27.5737 42.6189 25.6692V21.7611C43.8503 21.4025 44.9686 20.7328 45.866 19.8165C46.7635 18.9001 47.4097 17.7681 47.7425 16.5294L48.6688 13.147C48.7524 12.8394 48.7739 12.5182 48.7318 12.2023C48.6898 11.8863 48.5851 11.5819 48.424 11.307C48.2628 11.032 48.0483 10.7919 47.7932 10.6009C47.5381 10.4098 47.2474 10.2716 46.9381 10.1943L46.7911 10.1578C46.1751 10.0046 45.5236 10.102 44.9794 10.4286C44.4351 10.7551 44.0427 11.2842 43.888 11.8998C43.3672 13.9814 43.0251 15.3123 41.2133 15.9005C41.5987 15.2721 41.8039 14.5497 41.8064 13.8124C41.8102 13.12 41.6371 12.4381 41.3033 11.8315C40.9695 11.2248 40.4862 10.7136 39.8993 10.3462C39.3124 9.97886 38.6413 9.76761 37.9498 9.73252C37.2583 9.69742 36.5693 9.83966 35.9482 10.1457C35.3272 10.4518 34.7946 10.9115 34.4011 11.4812C34.0077 12.051 33.7663 12.7118 33.7001 13.401C33.6338 14.0903 33.7448 14.785 34.0225 15.4192C34.3003 16.0535 34.7355 16.6063 35.2869 17.025L34.6369 17.2428C33.158 17.7318 31.8737 18.6799 30.9709 19.9492L29.0713 22.6077C28.8866 22.867 28.7565 23.1609 28.6886 23.4719C28.6207 23.7828 28.6165 24.1043 28.6763 24.4169C28.736 24.7295 28.8585 25.0267 29.0363 25.2907C29.2141 25.5547 29.4435 25.7799 29.7107 25.9528C30.1718 26.26 30.7249 26.3986 31.2764 26.345C31.8279 26.2914 32.3439 26.0489 32.7373 25.6587L34.4963 23.8996V26.6978L32.24 34.536C32.206 34.6675 32.1842 34.8019 32.175 34.9374H26C25.8491 34.9374 25.7012 34.9794 25.5728 35.0588C25.4445 35.1381 25.3408 35.2516 25.2733 35.3865C25.2058 35.5215 25.1772 35.6726 25.1908 35.8229C25.2043 35.9732 25.2595 36.1167 25.35 36.2374L27.7875 39.4874C27.8632 39.5883 27.9613 39.6702 28.0741 39.7266C28.187 39.783 28.3114 39.8124 28.4375 39.8124H49.5625C49.7134 39.8124 49.8613 39.7704 49.9897 39.6911C50.118 39.6117 50.2217 39.4982 50.2892 39.3633C50.3567 39.2283 50.3853 39.0772 50.3717 38.9269C50.3582 38.7767 50.303 38.6331 50.2125 38.5124ZM37.7439 11.3749C38.226 11.3749 38.6972 11.5179 39.0981 11.7857C39.4989 12.0535 39.8113 12.4342 39.9958 12.8796C40.1803 13.325 40.2286 13.8151 40.1345 14.2879C40.0405 14.7608 39.8083 15.1951 39.4675 15.536C39.1266 15.8769 38.6922 16.109 38.2194 16.2031C37.7466 16.2971 37.2565 16.2489 36.8111 16.0644C36.3657 15.8799 35.985 15.5675 35.7172 15.1666C35.4493 14.7658 35.3064 14.2945 35.3064 13.8124C35.3064 13.1659 35.5632 12.546 36.0203 12.0888C36.4774 11.6317 37.0974 11.3749 37.7439 11.3749ZM33.8 34.9853L36.088 27.0375C36.1088 26.9643 36.1192 26.8885 36.1189 26.8124V21.9374C36.1188 21.7767 36.0712 21.6197 35.9819 21.4861C35.8926 21.3525 35.7657 21.2484 35.6173 21.1869C35.4688 21.1254 35.3055 21.1093 35.1479 21.1407C34.9903 21.172 34.8456 21.2494 34.7319 21.363L31.5851 24.5098C31.4535 24.6394 31.2799 24.7177 31.0956 24.7307C30.9114 24.7437 30.7285 24.6904 30.5801 24.5805C30.4992 24.5261 30.43 24.4561 30.3766 24.3746C30.3232 24.2932 30.2866 24.2018 30.2689 24.106C30.2513 24.0102 30.253 23.9118 30.2739 23.8166C30.2948 23.7215 30.3345 23.6314 30.3908 23.5518L32.2904 20.8942C32.9941 19.9037 33.9954 19.1637 35.1487 18.7817L37.8755 17.8749H38.3126C44.0659 17.8749 44.7127 15.2887 45.4626 12.2938C45.4871 12.1957 45.5307 12.1034 45.591 12.0221C45.6513 11.9409 45.727 11.8723 45.8138 11.8204C45.9006 11.7684 45.9968 11.7341 46.0969 11.7195C46.1969 11.7048 46.2989 11.71 46.397 11.7348L46.5441 11.7714C46.6434 11.7961 46.7368 11.8405 46.8187 11.9018C46.9007 11.9632 46.9695 12.0403 47.0212 12.1286C47.0729 12.217 47.1064 12.3148 47.1198 12.4163C47.1331 12.5177 47.1261 12.6209 47.099 12.7196L46.1768 16.1012C45.8922 17.1582 45.3171 18.1142 44.5167 18.861C43.7164 19.6078 42.7229 20.1154 41.6488 20.3262C41.4652 20.3637 41.3003 20.4634 41.1818 20.6085C41.0634 20.7536 40.9987 20.9352 40.9988 21.1225V25.9975C40.9988 26.2129 41.0844 26.4196 41.2368 26.5719C42.8976 28.2327 43.8287 30.506 44.2593 33.9738L44.3966 34.8163C44.4159 34.9316 44.4098 35.0497 44.3787 35.1623C44.3475 35.275 44.2921 35.3794 44.2163 35.4684C44.1405 35.5573 44.0462 35.6286 43.9399 35.6773C43.8337 35.7259 43.718 35.7507 43.6012 35.7499C43.413 35.75 43.2307 35.6839 43.0863 35.5631C42.9419 35.4423 42.8446 35.2746 42.8114 35.0893L42.0063 30.5808C41.9329 30.0657 41.7004 29.5864 41.3412 29.21C40.9821 28.8335 40.5143 28.5787 40.0033 28.4811C39.4923 28.3836 38.9635 28.4481 38.491 28.6658C38.0184 28.8835 37.6257 29.2434 37.3677 29.6952C37.3523 29.7214 37.3385 29.7486 37.3263 29.7764L34.9269 35.3827C34.8811 35.4745 34.8131 35.5535 34.7292 35.6127C34.6453 35.6718 34.548 35.7092 34.4461 35.7216C34.3441 35.7339 34.2408 35.7207 34.1452 35.6833C34.0496 35.6458 33.9647 35.5852 33.8983 35.507C33.8426 35.4336 33.8047 35.3483 33.7876 35.2577C33.7706 35.1672 33.7748 35.074 33.8 34.9853ZM41.1336 34.9374H36.8875L38.7993 30.4687C38.8781 30.3444 38.9869 30.242 39.1157 30.171C39.2445 30.1 39.3892 30.0627 39.5363 30.0624C39.7503 30.0651 39.956 30.1453 40.1154 30.2882C40.2748 30.431 40.3771 30.6267 40.4032 30.8392L41.1336 34.9374ZM28.8438 38.1874L27.625 36.5624H32.6682C32.8755 36.8163 33.1366 37.0209 33.4327 37.1614C33.7288 37.3019 34.0524 37.3748 34.3801 37.3748C34.7079 37.3748 35.0315 37.3019 35.3276 37.1614C35.6237 37.0209 35.8848 36.8163 36.0921 36.5624H41.7942C42.0205 36.8178 42.2985 37.0223 42.6097 37.1623C42.9209 37.3023 43.2583 37.3748 43.5996 37.3748C43.9408 37.3748 44.2782 37.3023 44.5894 37.1623C44.9006 37.0223 45.1786 36.8178 45.4049 36.5624H46.7188L47.9375 38.1874H28.8438Z" fill="#BD192B"/>
<path d="M20.3125 40.625H23.5625C23.778 40.625 23.9846 40.5394 24.137 40.387C24.2894 40.2347 24.375 40.028 24.375 39.8125C24.375 39.597 24.2894 39.3903 24.137 39.238C23.9846 39.0856 23.778 39 23.5625 39H21.125V11.375H23.5625C23.778 11.375 23.9846 11.2894 24.137 11.137C24.2894 10.9847 24.375 10.778 24.375 10.5625C24.375 10.347 24.2894 10.1403 24.137 9.98798C23.9846 9.8356 23.778 9.75 23.5625 9.75H20.3125C20.097 9.75 19.8903 9.8356 19.738 9.98798C19.5856 10.1403 19.5 10.347 19.5 10.5625V13.5322L10.7364 24.6854C10.6238 24.8286 10.5626 25.0054 10.5626 25.1875C10.5626 25.3696 10.6238 25.5464 10.7364 25.6896L13.9864 29.8253C14.0509 29.9127 14.1324 29.9864 14.226 30.0418C14.3196 30.0972 14.4233 30.1333 14.5311 30.1478C14.6389 30.1624 14.7485 30.1552 14.8534 30.1267C14.9583 30.0981 15.0564 30.0488 15.142 29.9816C15.2275 29.9144 15.2986 29.8307 15.3512 29.7355C15.4038 29.6404 15.4367 29.5356 15.4481 29.4274C15.4594 29.3193 15.4489 29.2099 15.4173 29.1059C15.3856 29.0019 15.3333 28.9053 15.2636 28.8218L12.4085 25.1875L19.5 16.1614V34.2136L17.121 31.1854C16.9865 31.0201 16.7924 30.9142 16.5805 30.8907C16.3687 30.8671 16.1561 30.9277 15.9886 31.0595C15.821 31.1912 15.7119 31.3835 15.6848 31.5949C15.6578 31.8063 15.7148 32.0199 15.8437 32.1896L19.5 36.8428V39.8125C19.5 40.028 19.5856 40.2347 19.738 40.387C19.8903 40.5394 20.097 40.625 20.3125 40.625Z" fill="#BD192B"/>
<path d="M25.1875 15.4375C25.403 15.4375 25.6097 15.3519 25.762 15.1995C25.9144 15.0472 26 14.8405 26 14.625C26 14.4095 25.9144 14.2028 25.762 14.0505C25.6097 13.8981 25.403 13.8125 25.1875 13.8125H24.375C24.1595 13.8125 23.9528 13.8981 23.8005 14.0505C23.6481 14.2028 23.5625 14.4095 23.5625 14.625C23.5625 14.8405 23.6481 15.0472 23.8005 15.1995C23.9528 15.3519 24.1595 15.4375 24.375 15.4375H25.1875Z" fill="#BD192B"/>
<path d="M32.5 14.625C32.5 14.4095 32.4144 14.2028 32.262 14.0505C32.1097 13.8981 31.903 13.8125 31.6875 13.8125H28.4375C28.222 13.8125 28.0153 13.8981 27.863 14.0505C27.7106 14.2028 27.625 14.4095 27.625 14.625C27.625 14.8405 27.7106 15.0472 27.863 15.1995C28.0153 15.3519 28.222 15.4375 28.4375 15.4375H31.6875C31.903 15.4375 32.1097 15.3519 32.262 15.1995C32.4144 15.0472 32.5 14.8405 32.5 14.625Z" fill="#BD192B"/>
<path d="M23.5625 17.0625H22.75C22.5345 17.0625 22.3278 17.1481 22.1755 17.3005C22.0231 17.4528 21.9375 17.6595 21.9375 17.875C21.9375 18.0905 22.0231 18.2972 22.1755 18.4495C22.3278 18.6019 22.5345 18.6875 22.75 18.6875H23.5625C23.778 18.6875 23.9847 18.6019 24.137 18.4495C24.2894 18.2972 24.375 18.0905 24.375 17.875C24.375 17.6595 24.2894 17.4528 24.137 17.3005C23.9847 17.1481 23.778 17.0625 23.5625 17.0625Z" fill="#BD192B"/>
<path d="M26.8125 18.6875H30.0625C30.278 18.6875 30.4847 18.6019 30.637 18.4495C30.7894 18.2972 30.875 18.0905 30.875 17.875C30.875 17.6595 30.7894 17.4528 30.637 17.3005C30.4847 17.1481 30.278 17.0625 30.0625 17.0625H26.8125C26.597 17.0625 26.3903 17.1481 26.238 17.3005C26.0856 17.4528 26 17.6595 26 17.875C26 18.0905 26.0856 18.2972 26.238 18.4495C26.3903 18.6019 26.597 18.6875 26.8125 18.6875Z" fill="#BD192B"/>
<path d="M47.125 4.0625C47.3405 4.0625 47.5472 3.9769 47.6995 3.82452C47.8519 3.67215 47.9375 3.46549 47.9375 3.25V2.4375C47.9375 2.22201 47.8519 2.01535 47.6995 1.86298C47.5472 1.7106 47.3405 1.625 47.125 1.625C46.9095 1.625 46.7028 1.7106 46.5505 1.86298C46.3981 2.01535 46.3125 2.22201 46.3125 2.4375V3.25C46.3125 3.46549 46.3981 3.67215 46.5505 3.82452C46.7028 3.9769 46.9095 4.0625 47.125 4.0625Z" fill="#BD192B"/>
<path d="M48.75 5.6875H49.5625C49.778 5.6875 49.9847 5.6019 50.137 5.44952C50.2894 5.29715 50.375 5.09049 50.375 4.875C50.375 4.65951 50.2894 4.45285 50.137 4.30048C49.9847 4.1481 49.778 4.0625 49.5625 4.0625H48.75C48.5345 4.0625 48.3278 4.1481 48.1755 4.30048C48.0231 4.45285 47.9375 4.65951 47.9375 4.875C47.9375 5.09049 48.0231 5.29715 48.1755 5.44952C48.3278 5.6019 48.5345 5.6875 48.75 5.6875Z" fill="#BD192B"/>
<path d="M47.9375 7.3125V6.5C47.9375 6.28451 47.8519 6.07785 47.6995 5.92548C47.5472 5.7731 47.3405 5.6875 47.125 5.6875C46.9095 5.6875 46.7028 5.7731 46.5505 5.92548C46.3981 6.07785 46.3125 6.28451 46.3125 6.5V7.3125C46.3125 7.52799 46.3981 7.73465 46.5505 7.88702C46.7028 8.0394 46.9095 8.125 47.125 8.125C47.3405 8.125 47.5472 8.0394 47.6995 7.88702C47.8519 7.73465 47.9375 7.52799 47.9375 7.3125Z" fill="#BD192B"/>
<path d="M43.875 4.875C43.875 5.09049 43.9606 5.29715 44.113 5.44952C44.2653 5.6019 44.472 5.6875 44.6875 5.6875H45.5C45.7155 5.6875 45.9222 5.6019 46.0745 5.44952C46.2269 5.29715 46.3125 5.09049 46.3125 4.875C46.3125 4.65951 46.2269 4.45285 46.0745 4.30048C45.9222 4.1481 45.7155 4.0625 45.5 4.0625H44.6875C44.472 4.0625 44.2653 4.1481 44.113 4.30048C43.9606 4.45285 43.875 4.65951 43.875 4.875Z" fill="#BD192B"/>
</svg>
