<svg width="124" height="44" viewBox="0 0 124 44" fill="none" xmlns="http://www.w3.org/2000/svg">
<path d="M121.846 8.85303L86.3692 8.85794C85.4663 8.85794 84.8761 8.5977 84.8761 7.38489V2.25868C84.8761 0.780716 84.0589 0 82.5759 0H41.9588C40.4405 0 39.6586 0.834729 39.6586 2.24395V7.37016C39.6586 8.4504 39.134 8.84321 38.1604 8.84321L14.9111 8.84812C13.1304 8.84812 12.0913 9.67303 11.5566 10.7582L0.23204 32.2942C0.0857537 32.5691 0 32.8883 0 33.2124C0 34.0618 0.570011 35.1666 2.15898 35.1666L38.1554 35.1617C39.2652 35.1617 39.6536 35.6527 39.6536 36.6348V41.7561C39.6536 43.3028 40.5716 44 41.9588 44H82.5708C83.953 44 84.8761 43.3469 84.8761 41.7708L84.871 36.6495C84.871 35.6036 85.325 35.1764 86.3642 35.1764L108.943 35.1715C110.496 35.1715 111.616 34.7738 112.398 33.3646L123.591 12.079C123.839 11.6175 124 11.3572 124 10.8122C124 9.35878 122.719 8.85303 121.846 8.85303ZM112.902 17.4311L107.505 27.7081C107.167 28.3071 106.567 28.3268 106.143 28.3268H79.3677C78.2579 28.3268 77.8544 28.8129 77.8544 29.7949V35.7067C77.8544 36.6839 77.4105 37.1601 76.331 37.1601H48.1987C47.2554 37.1601 46.6803 36.8361 46.6803 35.692V29.7851C46.6803 28.7048 46.1709 28.3218 45.162 28.3218H12.3284C11.5213 28.3218 10.9664 27.8308 10.9664 27.1434C10.9664 26.9421 11.0168 26.7604 11.1076 26.5886L16.5051 16.3165C16.7119 15.958 17.0499 15.6978 17.862 15.6978L45.162 15.7027C46.1053 15.7027 46.6904 15.3344 46.6904 14.2198V8.308C46.6904 7.26214 47.1595 6.84477 48.1987 6.84477L76.3259 6.83986C77.3348 6.83986 77.8392 7.27687 77.8392 8.32273V14.2297C77.8392 15.2461 78.3235 15.6929 79.3677 15.6929H111.677C112.706 15.6929 113.044 16.3509 113.044 16.8762C113.044 17.0677 112.993 17.2592 112.902 17.4311Z" fill="white"/>
</svg>
