<svg width="22" height="22" viewBox="0 0 22 22" fill="none" xmlns="http://www.w3.org/2000/svg">
<path d="M10.4516 0.403175C8.36127 0.613116 6.35481 1.41351 4.9161 2.62067L4.59998 2.87654L5.10965 3.13896C5.54836 3.36202 5.76127 3.50636 6.45804 4.05745C6.59998 4.16898 6.61288 4.16898 6.96127 3.93936C7.69675 3.46043 8.67094 3.08648 9.67739 2.8831C10.4774 2.71908 12.1677 2.71908 12.9613 2.8831C13.8903 3.06679 14.8903 3.45387 15.5871 3.88687L15.9548 4.1165L16.3613 3.77534C16.5871 3.59164 17.0451 3.30298 17.3806 3.1324L17.9806 2.82405L17.7677 2.64035C16.5806 1.63658 14.8064 0.836177 13.0838 0.527827C12.5226 0.429418 10.9484 0.35069 10.4516 0.403175Z" fill="#BD192B"/>
<path d="M2.93546 3.05361C2.86449 3.12578 2.78707 3.30292 2.76772 3.44725C2.72901 3.68343 2.6903 3.73592 2.43869 3.85401C2.02578 4.05083 1.88385 4.26733 1.92256 4.62816C1.94191 4.79218 1.97417 4.96932 1.99998 5.02836C2.02578 5.10053 1.94191 5.18582 1.70965 5.33671C1.41288 5.52697 1.38707 5.55977 1.38707 5.79596C1.38707 5.94029 1.41933 6.15023 1.45804 6.26832C1.52256 6.44546 1.51611 6.51107 1.42578 6.66852C1.31611 6.85878 1.27095 7.24586 1.34191 7.36395C1.51611 7.65262 3.55482 8.89258 3.85159 8.89258C4.05159 8.89258 4.21288 8.722 4.26449 8.45958C4.29675 8.26932 4.27095 8.23651 3.74836 7.84944C3.44514 7.61981 3.19353 7.423 3.19353 7.40987C3.19353 7.38363 3.60643 7.64606 4.05159 7.96097C4.33546 8.16435 4.37417 8.17747 4.58707 8.1053C4.85159 8.01345 4.98062 7.83632 5.03224 7.48204C5.06449 7.21962 5.06449 7.21962 4.54191 6.79317C3.78062 6.16991 3.76772 6.09775 4.51611 6.67508L5.16127 7.16713L5.47095 7.0884C5.89675 6.97687 5.98707 6.8719 6.01933 6.41922L6.04514 6.03214L5.54191 5.61226C4.72901 4.94308 4.73546 4.90371 5.55482 5.52697C6.03869 5.89437 6.18062 5.93373 6.4774 5.77628C6.6903 5.67131 6.74191 5.55977 6.74191 5.24486C6.74191 4.6216 5.99353 3.88681 4.78707 3.31604C3.89675 2.90272 3.18707 2.79775 2.93546 3.05361Z" fill="#BD192B"/>
<path d="M18.1806 3.11266C16.7999 3.59814 15.7096 4.556 15.7096 5.27111C15.7096 5.52697 15.9225 5.79596 16.1806 5.86156C16.3548 5.90749 16.4257 5.89437 16.6128 5.74347C17.0709 5.3892 17.516 5.07429 17.516 5.10709C17.516 5.12021 17.2709 5.33671 16.9677 5.57946C16.4838 5.97309 16.4193 6.05838 16.4193 6.24208C16.4193 6.81942 16.5419 6.99655 17.0515 7.10809C17.316 7.17369 17.3419 7.16057 17.6644 6.89814C18.5741 6.16335 18.7741 6.0715 17.9677 6.76693C17.4967 7.16713 17.4515 7.22618 17.4515 7.44268C17.4515 7.77727 17.5741 7.97409 17.8515 8.08562L18.0838 8.18403L18.6902 7.77071C19.387 7.29834 19.3612 7.37707 18.658 7.90848C18.2064 8.24308 18.1741 8.28244 18.2064 8.46614C18.258 8.72856 18.4064 8.89258 18.5999 8.89258C18.9483 8.89258 20.8709 7.7051 21.1031 7.35083C21.2257 7.16057 21.187 6.8391 21.0257 6.6554C20.9419 6.55699 20.9419 6.50451 21.0386 6.15023C21.1419 5.77628 21.1419 5.73691 21.0386 5.58602C20.9806 5.49417 20.8193 5.3564 20.6773 5.28423C20.4451 5.16614 20.4257 5.13989 20.4838 4.98244C20.5225 4.89059 20.5483 4.68721 20.5483 4.52319C20.5483 4.1886 20.3741 3.9721 19.987 3.82777C19.8386 3.77528 19.7612 3.69655 19.7354 3.57846C19.658 3.23075 19.6257 3.14546 19.5289 3.03393C19.3741 2.85679 18.8128 2.8896 18.1806 3.11266Z" fill="#BD192B"/>
<path d="M14.7742 3.88689C14.8 3.9525 14.8903 4.22804 14.9742 4.50359C15.058 4.7857 15.1871 5.07436 15.2516 5.15965L15.3742 5.31055L15.4193 5.08749C15.4451 4.96283 15.529 4.73977 15.6129 4.59544L15.7613 4.32645L15.4967 4.15587C15.1871 3.95906 14.8322 3.77536 14.7677 3.77536C14.7483 3.77536 14.7483 3.82784 14.7742 3.88689Z" fill="#BD192B"/>
<path d="M7.4193 3.99178C7.27736 4.07051 7.07091 4.19516 6.96123 4.26733L6.76123 4.39198L6.90962 4.72001C6.99349 4.90371 7.06446 5.11365 7.06446 5.17926C7.06446 5.43512 7.30962 5.08741 7.45155 4.63472C7.69026 3.88681 7.70317 3.84089 7.69026 3.84089C7.68381 3.84745 7.56123 3.91305 7.4193 3.99178Z" fill="#BD192B"/>
<path d="M10.7676 7.25898C9.78055 7.37051 8.93538 7.81663 7.19345 9.1222C6.42571 9.69953 5.77409 10.0144 5.18055 10.1063C4.92248 10.1457 4.87087 10.185 4.79345 10.3622C4.64506 10.7164 4.69022 11.3725 4.89022 11.7465C5.16764 12.2779 5.10958 12.2516 5.64506 12.1335C7.39345 11.7661 9.50958 13.2882 10.2064 15.4204C10.3418 15.8403 10.3805 16.0765 10.3805 16.5882L10.387 17.2311L10.6515 17.3558C11.0064 17.5329 11.6386 17.5329 11.9934 17.3558L12.258 17.2311L12.2644 16.5554C12.2709 16.0109 12.3031 15.7878 12.4322 15.4073C13.1805 13.2488 15.2451 11.7661 16.9934 12.1335C17.258 12.1926 17.4838 12.2319 17.4902 12.2188C17.4967 12.2123 17.5999 12.0286 17.716 11.8121C17.9031 11.4775 17.9354 11.3528 17.9354 10.992C17.9354 10.7558 17.8967 10.4737 17.8515 10.3622C17.7741 10.185 17.7225 10.1457 17.4644 10.1063C17.2967 10.08 16.9547 9.98164 16.7031 9.88323C16.2902 9.71921 15.9934 9.52896 14.4644 8.40709C13.1999 7.4886 12.0064 7.11464 10.7676 7.25898ZM12.1354 8.00689C12.7612 8.31524 13.1934 9.1222 13.1031 9.79138C12.9741 10.7689 12.2644 11.4119 11.3225 11.4119C10.6064 11.4119 10.058 11.0773 9.72248 10.4343C9.58055 10.1653 9.54829 10.0144 9.54829 9.61424C9.54829 9.18124 9.57409 9.07627 9.74829 8.76136C10.2451 7.86911 11.2322 7.5542 12.1354 8.00689ZM12.3031 12.0614C12.8386 12.291 12.858 12.7502 12.3483 13.0127C11.5031 13.4391 9.90313 13.1504 9.90313 12.5665C9.90313 12.35 10.1805 12.1007 10.516 12.0023C10.9289 11.8842 11.9741 11.917 12.3031 12.0614Z" fill="#BD192B"/>
<path d="M10.7096 8.22995C9.5612 8.76136 9.53539 10.4015 10.6644 10.9854C11.0128 11.1691 11.6193 11.1691 11.9547 10.9985C12.9031 10.5065 13.1031 9.24685 12.3483 8.51862C11.916 8.1053 11.2322 7.98065 10.7096 8.22995Z" fill="#BD192B"/>
<path d="M10.4838 12.3238C10.1676 12.4353 10.1418 12.6453 10.4322 12.7699C10.7612 12.9142 12.0192 12.8946 12.2451 12.7437C12.4902 12.5862 12.4644 12.4681 12.1612 12.3435C11.8515 12.2188 10.8257 12.2057 10.4838 12.3238Z" fill="#BD192B"/>
<path d="M21.0967 7.77729C21.0322 7.88882 19.7612 8.72202 19.4 8.88603C19.1096 9.02381 19.0645 9.06973 19.0645 9.23375C19.0645 9.70611 18.6838 10.1391 18.2645 10.1391C18.1161 10.1391 18.0903 10.1588 18.129 10.2506C18.3419 10.828 18.2903 11.366 17.9612 11.9564C17.858 12.1467 17.7741 12.3172 17.7741 12.3369C17.7741 12.3501 17.8903 12.4419 18.0387 12.5337C18.3354 12.7306 18.5419 13.1242 18.5483 13.5047C18.5483 14.0886 18.0387 15.1777 17.3935 15.9518C16.7483 16.7326 15.6064 17.6182 14.4838 18.2153C14.1483 18.3924 13.9741 18.4383 13.6129 18.458C13.0064 18.4842 12.7741 18.3596 12.529 17.8675L12.3483 17.5067L12.0774 17.6445C11.6967 17.8347 10.9483 17.8347 10.5677 17.6445L10.2967 17.5067L10.1161 17.8675C9.86447 18.3727 9.63866 18.4908 8.99995 18.4514C8.58705 18.4318 8.45157 18.3858 8.06447 18.1759C6.34834 17.218 5.14834 16.0896 4.52254 14.8562C4.01931 13.8524 3.9677 13.1308 4.3806 12.7371C4.49673 12.6256 4.65802 12.4878 4.73544 12.4353L4.87737 12.3369L4.68383 11.9761C4.34189 11.3332 4.29673 10.8477 4.51608 10.2506C4.55479 10.1588 4.52899 10.1391 4.3806 10.1391C3.9935 10.1391 3.5806 9.71924 3.5806 9.3256C3.5806 9.18782 3.47737 9.1091 2.85802 8.76138C2.45802 8.53832 1.97415 8.23653 1.7806 8.09876C1.58705 7.95442 1.40641 7.86258 1.3806 7.88882C1.35479 7.92162 1.28383 8.125 1.23221 8.34806C0.819309 9.98822 0.838664 12.1073 1.29028 13.7803C2.19995 17.1721 4.80641 19.9473 8.10318 21.0167C9.25157 21.3906 10.0645 21.5153 11.3225 21.5153C12.5806 21.5087 13.4193 21.384 14.5483 21.0167C17.5548 20.0457 20.1032 17.5067 21.1483 14.4298C21.5741 13.1767 21.6774 12.5141 21.6774 10.9592C21.6774 9.55522 21.6322 9.14846 21.3419 8.08564C21.2451 7.7248 21.1806 7.63951 21.0967 7.77729Z" fill="#BD192B"/>
</svg>
