<?xml version="1.0" encoding="UTF-8" standalone="no"?> <svg width="64" height="64" viewBox="0 0 64 64" fill="none" xmlns="http://www.w3.org/2000/svg">
<path d="M53 25H50.57L51.35 30.43C51.4304 30.9975 51.3881 31.5755 51.226 32.1253C51.064 32.675 50.7859 33.1836 50.4106 33.6167C50.0353 34.0498 49.5715 34.3974 49.0504 34.6361C48.5293 34.8747 47.9631 34.9988 47.39 35H16.61C16.0369 34.9988 15.4707 34.8747 14.9496 34.6361C14.4285 34.3974 13.9647 34.0498 13.5894 33.6167C13.2141 33.1836 12.936 32.675 12.774 32.1253C12.6119 31.5755 12.5696 30.9975 12.65 30.43L13.43 25H11L7 37H57L53 25Z" fill="none"/>
<path d="M31.56 51C31.5602 51.1652 31.5804 51.3297 31.62 51.49C31.7278 51.9224 31.9776 52.3062 32.3293 52.58C32.681 52.8537 33.1143 53.0016 33.56 53H35.36L35 57H29L28 46H36L35.73 49H33.56C33.0301 49.0016 32.5223 49.2128 32.1475 49.5875C31.7728 49.9623 31.5616 50.4701 31.56 51Z" fill="none"/>
<path d="M3 32C3.00245 38.3308 5.07577 44.487 8.90365 49.5295C12.7315 54.5719 18.1038 58.2238 24.2009 59.928C30.2981 61.6321 36.7853 61.295 42.6729 58.968C48.5606 56.6411 53.5254 52.4521 56.81 47.04C53.9488 50.6429 50.271 53.513 46.0808 55.4129C41.8906 57.3129 37.3083 58.1882 32.7128 57.9663C28.1174 57.7445 23.6407 56.432 19.6529 54.1373C15.6652 51.8427 12.2809 48.6317 9.78 44.77C9.89 44.72 10 44.67 10.12 44.62C10.5351 44.4636 10.882 44.1663 11.1 43.78C9.05967 40.1898 7.99116 36.1295 8 32H3Z" fill="#none"/>
<path d="M22 25V37L28 46H36L42 37V25C42 23.9391 41.5786 22.9217 40.8284 22.1716C40.0783 21.4214 39.0609 21 38 21H26C24.9391 21 23.9217 21.4214 23.1716 22.1716C22.4214 22.9217 22 23.9391 22 25Z" fill="none"/>
<path d="M58.46 20.13C57.0007 20.9378 55.4874 21.6442 53.931 22.244C53.4474 22.435 53.0572 22.8068 52.8431 23.2805C52.629 23.7543 52.6078 24.2929 52.784 24.782C54.4053 29.4574 54.4053 34.5426 52.784 39.218C52.6078 39.7072 52.629 40.2457 52.8431 40.7195C53.0572 41.1933 53.4474 41.565 53.931 41.756C55.4874 42.3559 57.0007 43.0622 58.46 43.87C60.1344 40.1368 61 36.0915 61 32C61 27.9085 60.1344 23.8632 58.46 20.13V20.13Z" fill="#BD192B"/>
<path d="M5.54002 20.13C3.86567 23.8632 3.00006 27.9085 3.00006 32C3.00006 36.0915 3.86567 40.1368 5.54002 43.87C6.99937 43.0622 8.51261 42.3559 10.069 41.756C10.5526 41.565 10.9428 41.1933 11.1569 40.7195C11.371 40.2457 11.3922 39.7072 11.216 39.218C9.59473 34.5426 9.59473 29.4574 11.216 24.782C11.3922 24.2929 11.371 23.7543 11.1569 23.2805C10.9428 22.8068 10.5526 22.435 10.069 22.244C8.51261 21.6442 6.99937 20.9378 5.54002 20.13V20.13Z" fill="#BD192B"/>
<path d="M32 38C35.3137 38 38 35.3137 38 32C38 28.6863 35.3137 26 32 26C28.6863 26 26 28.6863 26 32C26 35.3137 28.6863 38 32 38Z" fill="none"/>
<path d="M32 25C30.6155 25 29.2622 25.4105 28.111 26.1797C26.9599 26.9489 26.0627 28.0421 25.5328 29.3212C25.003 30.6003 24.8644 32.0078 25.1345 33.3656C25.4046 34.7235 26.0713 35.9708 27.0503 36.9497C28.0292 37.9287 29.2765 38.5954 30.6344 38.8655C31.9922 39.1356 33.3997 38.997 34.6788 38.4672C35.9579 37.9373 37.0511 37.0401 37.8203 35.889C38.5895 34.7378 39 33.3845 39 32C38.9979 30.1441 38.2597 28.3649 36.9474 27.0526C35.6351 25.7403 33.8559 25.0021 32 25V25ZM32 37C31.0111 37 30.0444 36.7068 29.2222 36.1573C28.3999 35.6079 27.759 34.827 27.3806 33.9134C27.0022 32.9998 26.9032 31.9945 27.0961 31.0245C27.289 30.0546 27.7652 29.1637 28.4645 28.4645C29.1637 27.7652 30.0546 27.289 31.0246 27.0961C31.9945 26.9031 32.9998 27.0022 33.9134 27.3806C34.8271 27.759 35.6079 28.3999 36.1574 29.2221C36.7068 30.0444 37 31.0111 37 32C36.9984 33.3256 36.4711 34.5964 35.5338 35.5338C34.5964 36.4711 33.3256 36.9984 32 37V37Z" fill="#BD192B"/>
<path d="M32 31C32.2652 31 32.5196 30.8946 32.7071 30.7071C32.8946 30.5196 33 30.2652 33 30C33 29.7348 32.8946 29.4804 32.7071 29.2929C32.5196 29.1054 32.2652 29 32 29C31.2044 29 30.4413 29.3161 29.8787 29.8787C29.3161 30.4413 29 31.2044 29 32C29 32.7956 29.3161 33.5587 29.8787 34.1213C30.4413 34.6839 31.2044 35 32 35C32.2652 35 32.5196 34.8946 32.7071 34.7071C32.8946 34.5196 33 34.2652 33 34C33 33.7348 32.8946 33.4804 32.7071 33.2929C32.5196 33.1054 32.2652 33 32 33C31.7348 33 31.4804 32.8946 31.2929 32.7071C31.1054 32.5196 31 32.2652 31 32C31 31.7348 31.1054 31.4804 31.2929 31.2929C31.4804 31.1054 31.7348 31 32 31Z" fill="#BD192B"/>
<path d="M62 32C62.0133 27.7646 61.1167 23.5758 59.371 19.717L59.362 19.705C56.9915 14.4321 53.1479 9.95647 48.2936 6.81657C43.4394 3.67666 37.7813 2.00623 32 2.00623C26.2188 2.00623 20.5607 3.67666 15.7064 6.81657C10.8522 9.95647 7.00858 14.4321 4.63803 19.705L4.62903 19.717C2.89597 23.58 2 27.766 2 32C2 36.2339 2.89597 40.42 4.62903 44.283L4.63803 44.295C7.00858 49.5678 10.8522 54.0435 15.7064 57.1834C20.5607 60.3233 26.2188 61.9937 32 61.9937C37.7813 61.9937 43.4394 60.3233 48.2936 57.1834C53.1479 54.0435 56.9915 49.5678 59.362 44.295L59.371 44.283C61.1167 40.4241 62.0133 36.2353 62 32V32ZM60 32C60.0109 35.5899 59.3221 39.1475 57.972 42.474C56.7752 41.8604 55.5472 41.3096 54.293 40.824C54.0511 40.7267 53.8567 40.5387 53.7513 40.3002C53.646 40.0616 53.638 39.7913 53.729 39.547C55.4237 34.658 55.4237 29.3409 53.729 24.452C53.6383 24.2076 53.6466 23.9375 53.7522 23.6991C53.8577 23.4608 54.0521 23.2731 54.294 23.176C55.5478 22.6901 56.7755 22.1394 57.972 21.526C59.3221 24.8524 60.0109 28.41 60 32V32ZM43 30H48.219L48.719 32H43V30ZM43 34H50C50.152 34 50.302 33.9653 50.4386 33.8986C50.5752 33.832 50.6948 33.735 50.7884 33.6152C50.8819 33.4953 50.9468 33.3558 50.9783 33.2071C51.0098 33.0583 51.007 32.9044 50.97 32.757L49.97 28.757C49.9159 28.5407 49.791 28.3488 49.6152 28.2116C49.4395 28.0745 49.223 28 49 28H43V26H52.108C53.0981 29.2408 53.2698 32.6765 52.608 36H43V34ZM51.673 24H42.9C42.6679 22.8714 42.0539 21.8573 41.1613 21.1287C40.2687 20.4001 39.1522 20.0014 38 20H26C24.8478 20.0014 23.7313 20.4001 22.8388 21.1287C21.9462 21.8573 21.3321 22.8714 21.1 24H12.327C12.3146 23.6017 12.2224 23.2099 12.0559 22.8479C11.8895 22.4858 11.6522 22.1608 11.358 21.892C13.2459 18.0254 16.1818 14.7668 19.8313 12.4873C23.4808 10.2079 27.6972 8.99939 32 8.99939C36.3029 8.99939 40.5192 10.2079 44.1687 12.4873C47.8183 14.7668 50.7542 18.0254 52.642 21.892C52.3477 22.1606 52.1103 22.4856 51.9438 22.8477C51.7774 23.2098 51.6853 23.6016 51.673 24V24ZM35.465 45H28.535L23 36.7V25C23 24.2043 23.3161 23.4413 23.8787 22.8786C24.4413 22.316 25.2044 22 26 22H38C38.7957 22 39.5587 22.316 40.1213 22.8786C40.684 23.4413 41 24.2043 41 25V36.7L35.465 45ZM21 32H15.281L15.781 30H21V32ZM21 28H15C14.7771 28 14.5606 28.0745 14.3848 28.2116C14.2091 28.3488 14.0842 28.5407 14.03 28.757L13.03 32.757C12.9931 32.9044 12.9903 33.0583 13.0217 33.2071C13.0532 33.3558 13.1182 33.4953 13.2117 33.6152C13.3052 33.735 13.4248 33.832 13.5614 33.8986C13.698 33.9653 13.848 34 14 34H21V36H11.4C10.7366 32.6769 10.9067 29.2413 11.895 26H21V28ZM12.16 38.888C12.06 38.596 11.98 38.296 11.892 38H21.465L27.027 46.343L27.777 54.593C24.2579 53.9316 20.9415 52.4587 18.0913 50.2913C15.241 48.1238 12.9356 45.3215 11.358 42.107C11.7935 41.7087 12.1018 41.191 12.2444 40.6184C12.3871 40.0458 12.3577 39.4439 12.16 38.888V38.888ZM29.812 54.888L29.1 47H34.91L34.193 54.883C33.464 54.952 32.736 55 32 55C31.264 55 30.536 54.952 29.812 54.883V54.888ZM36.973 46.348L42.535 38H52.108C52.02 38.3 51.942 38.595 51.84 38.888C51.6419 39.4439 51.6121 40.0459 51.7544 40.6186C51.8967 41.1914 52.2047 41.7094 52.64 42.108C51.0625 45.322 48.7573 48.1239 45.9074 50.2912C43.0576 52.4585 39.7417 53.9314 36.223 54.593L36.973 46.348ZM32 3.99997C37.235 4.00899 42.3629 5.48331 46.8033 8.25605C51.2436 11.0288 54.8191 14.9892 57.125 19.689C56.265 20.135 55.359 20.5566 54.407 20.954C52.3491 16.7667 49.159 13.2398 45.1985 10.7734C41.238 8.30693 36.6657 6.99957 32 6.99957C27.3343 6.99957 22.762 8.30693 18.8016 10.7734C14.8411 13.2398 11.651 16.7667 9.59303 20.954C8.64103 20.558 7.73503 20.1363 6.87503 19.689C9.18091 14.9892 12.7564 11.0288 17.1968 8.25605C21.6372 5.48331 26.7651 4.00899 32 3.99997V3.99997ZM4.00003 32C3.98917 28.41 4.67801 24.8524 6.02803 21.526C7.22485 22.1395 8.45285 22.6903 9.70703 23.176C9.94899 23.2733 10.1434 23.4612 10.2487 23.6998C10.3541 23.9383 10.3621 24.2086 10.271 24.453C8.57521 29.3435 8.57521 34.6625 10.271 39.553C10.3617 39.7973 10.3534 40.0675 10.2479 40.3058C10.1424 40.5442 9.94793 40.7319 9.70603 40.829C8.45225 41.3148 7.2246 41.8656 6.02803 42.479C4.67737 39.151 3.98852 35.5916 4.00003 32V32ZM32 60C26.7651 59.9909 21.6372 58.5166 17.1968 55.7439C12.7564 52.9712 9.18091 49.0107 6.87503 44.311C7.73503 43.865 8.64103 43.4433 9.59303 43.046C11.651 47.2333 14.8411 50.7601 18.8016 53.2266C22.762 55.693 27.3343 57.0004 32 57.0004C36.6657 57.0004 41.238 55.693 45.1985 53.2266C49.159 50.7601 52.3491 47.2333 54.407 43.046C55.359 43.442 56.265 43.8636 57.125 44.311C54.8191 49.0107 51.2436 52.9712 46.8033 55.7439C42.3629 58.5166 37.235 59.9909 32 60V60Z" fill="#BD192B"/>
</svg>
